# Blender 5.2.0 LTS
# www.blender.org
mtllib crates.mtl
o Cube.001
v 3.096531 -1.713133 0.512377
v 3.096531 -1.511421 0.512377
v 3.676759 -1.713133 0.510700
v 3.676759 -1.511421 0.510700
v 3.107806 -1.713133 4.412780
v 3.107806 -1.511421 4.412780
v 3.688034 -1.713133 4.411103
v 3.688034 -1.511421 4.411103
v 1.443377 -1.692158 2.760488
v 1.443377 -1.490446 2.760488
v 1.440807 -1.692158 2.180263
v 1.440807 -1.490446 2.180263
v 5.343758 -1.692158 2.743217
v 5.343758 -1.490446 2.743217
v 5.341188 -1.692158 2.162991
v 5.341188 -1.490446 2.162991
v 1.444835 -1.710099 2.451900
v 1.444835 1.710099 2.451900
v 3.417963 -1.710099 0.527741
v 3.417963 1.710099 0.527741
v 3.368993 -1.710099 4.425028
v 3.368993 1.710099 4.425028
v 5.342122 -1.710099 2.500870
v 5.342122 1.710099 2.500870
v 3.271249 -1.496930 0.206958
v 1.127839 -1.496930 2.297172
v 1.127839 1.496930 2.297172
v 3.271249 1.496930 0.206958
v 5.659117 -1.496930 2.655598
v 5.659117 1.496930 2.655598
v 3.515707 -1.496930 4.745812
v 3.515707 1.496930 4.745812
v 3.591835 -1.469510 0.230377
v 1.143195 -1.469510 2.618245
v 1.143195 1.469510 2.618245
v 3.591835 1.469510 0.230377
v 5.643761 1.469510 2.334525
v 5.643761 -1.469510 2.334525
v 3.195121 -1.469510 4.722393
v 3.195121 1.469510 4.722393
v 1.444835 1.570155 2.451900
v 3.417963 1.570155 0.527741
v 5.342122 1.570155 2.500870
v 3.368993 1.570155 4.425028
v 1.288245 -1.469510 2.476794
v 1.288245 1.469510 2.476794
v 3.340172 1.469510 4.580943
v 3.340172 -1.469510 4.580943
v 3.440141 1.469510 0.378306
v 3.440141 -1.469510 0.378306
v 5.492067 -1.469510 2.482454
v 5.492067 1.469510 2.482454
v 5.597702 1.562198 2.518842
v 5.597702 -1.431663 2.518842
v 3.454292 -1.431663 4.609056
v 3.454292 1.562198 4.609056
v 3.417963 -1.564898 0.527741
v 1.444835 -1.564898 2.451900
v 5.342122 -1.564898 2.500870
v 3.368993 -1.564898 4.425028
v 3.354705 -1.496930 0.292537
v 1.211294 -1.496930 2.382751
v 1.211294 1.496930 2.382751
v 3.354705 1.496930 0.292537
v 1.155346 -1.710099 2.448262
v 1.064153 -1.582724 2.537191
v 1.066416 -1.582724 2.357070
v 1.064153 1.582724 2.537191
v 1.155346 1.710099 2.448262
v 1.066416 1.582724 2.357070
v 3.421601 1.710099 0.238252
v 3.512793 1.582724 0.149323
v 3.332672 1.582724 0.147060
v 3.332672 -1.582724 0.147060
v 3.512793 -1.582724 0.149323
v 3.421601 -1.710099 0.238252
v 5.722803 -1.582724 2.415579
v 5.720540 -1.582724 2.595700
v 5.631611 -1.710099 2.504508
v 5.631611 1.710099 2.504508
v 5.720540 1.582724 2.595700
v 5.722803 1.582724 2.415579
v 3.365355 1.710099 4.714518
v 3.274163 1.582724 4.803446
v 3.454285 1.582724 4.805710
v 3.454285 -1.582724 4.805710
v 3.274163 -1.582724 4.803446
v 3.365355 -1.710099 4.714518
v 3.084811 1.478784 0.500359
v 3.084811 1.680496 0.500359
v 3.665039 1.478784 0.498681
v 3.665039 1.680496 0.498681
v 3.096086 1.478784 4.400762
v 3.096086 1.680496 4.400762
v 3.676314 1.478784 4.399085
v 3.676314 1.680496 4.399085
v 1.431657 1.499759 2.748470
v 1.431657 1.701471 2.748470
v 1.429087 1.499759 2.168245
v 1.429087 1.701471 2.168245
v 5.332038 1.499759 2.731199
v 5.332038 1.701471 2.731199
v 5.329469 1.499759 2.150974
v 5.329469 1.701471 2.150974
vn -0.0029 -0.0000 -1.0000
vn 1.0000 -0.0000 -0.0029
vn 0.0029 -0.0000 1.0000
vn -1.0000 -0.0000 0.0029
vn -0.0000 -1.0000 -0.0000
vn -0.0000 1.0000 -0.0000
vn -1.0000 -0.0000 0.0044
vn -0.0044 -0.0000 -1.0000
vn 1.0000 -0.0000 -0.0044
vn 0.0044 -0.0000 1.0000
vn -0.7159 -0.0000 0.6982
vn -0.6982 -0.0000 -0.7159
vn 0.9122 -0.0000 -0.4097
vn 0.6982 -0.0000 0.7159
vn 0.7159 -0.0000 -0.6982
vn 0.2936 0.9072 0.3011
vn -0.2936 -0.9072 -0.3011
vn -0.9122 -0.0000 0.4097
vn -0.8164 -0.5774 -0.0103
vn -0.8164 0.5774 -0.0103
vn 0.0103 0.5774 -0.8164
vn 0.0103 -0.5773 -0.8164
vn 0.8164 -0.5774 0.0103
vn 0.8164 0.5774 0.0103
vn -0.0103 0.5774 0.8164
vn -0.0103 -0.5773 0.8164
vn -0.4937 -0.7071 -0.5062
vn -0.9999 -0.0000 -0.0126
vn -0.4937 0.7071 -0.5062
vn 0.0126 -0.0000 -0.9999
vn 0.5062 -0.7071 -0.4937
vn 0.5062 0.7071 -0.4937
vn 0.9999 -0.0000 0.0126
vn 0.4937 -0.7071 0.5062
vn 0.4937 0.7071 0.5062
vn -0.0126 -0.0000 0.9999
vn -0.5062 -0.7071 0.4937
vn -0.5062 0.7071 0.4937
vt 0.375000 0.000000
vt 0.625000 0.000000
vt 0.625000 0.250000
vt 0.375000 0.250000
vt 0.625000 0.500000
vt 0.375000 0.500000
vt 0.625000 0.750000
vt 0.375000 0.750000
vt 0.625000 1.000000
vt 0.375000 1.000000
vt 0.125000 0.500000
vt 0.125000 0.750000
vt 0.875000 0.500000
vt 0.875000 0.750000
vt 0.609418 0.234418
vt 0.390582 0.234418
vt 0.607414 0.482414
vt 0.392586 0.482414
vt 0.609418 0.734418
vt 0.390582 0.734418
vt 0.607414 0.982414
vt 0.392586 0.982414
vt 0.350726 0.725726
vt 0.149274 0.725726
vt 0.649274 0.524274
vt 0.850726 0.524274
vt 0.850726 0.725726
vt 0.649274 0.725726
vt 0.392586 0.767586
vt 0.607414 0.767586
vt 0.392586 0.267586
vt 0.607414 0.267586
vt 0.390582 0.515582
vt 0.609418 0.515582
vt 0.149274 0.524274
vt 0.350726 0.524274
vt 0.390582 0.015582
vt 0.609418 0.015582
vt 0.134311 0.740690
vt 0.131983 0.747672
vt 0.125000 0.740689
vt 0.615690 0.000000
vt 0.622672 0.006983
vt 0.615690 0.009311
vt 0.623448 0.248448
vt 0.615690 0.257448
vt 0.615690 0.240690
vt 0.125000 0.509310
vt 0.131983 0.502328
vt 0.134311 0.509310
vt 0.376862 0.494414
vt 0.381517 0.508379
vt 0.365689 0.509310
vt 0.629655 0.502793
vt 0.615690 0.507448
vt 0.615690 0.490689
vt 0.629655 0.747207
vt 0.615690 0.759310
vt 0.615690 0.742552
vt 0.381517 0.741621
vt 0.376862 0.755586
vt 0.365689 0.740690
vt 0.384310 0.000000
vt 0.384311 0.009311
vt 0.384311 0.259311
vt 0.384311 0.240690
vt 0.625000 0.990690
vt 0.615690 0.990690
vt 0.384311 0.990690
vt 0.865689 0.740690
vt 0.865690 0.509310
s 0
f 1/1/1 2/2/1 4/3/1 3/4/1
f 3/4/2 4/3/2 8/5/2 7/6/2
f 7/6/3 8/5/3 6/7/3 5/8/3
f 5/8/4 6/7/4 2/9/4 1/10/4
f 3/11/5 7/6/5 5/8/5 1/12/5
f 8/5/6 4/13/6 2/14/6 6/7/6
f 9/1/7 10/2/7 12/3/7 11/4/7
f 11/4/8 12/3/8 16/5/8 15/6/8
f 15/6/9 16/5/9 14/7/9 13/8/9
f 13/8/10 14/7/10 10/9/10 9/10/10
f 11/11/5 15/6/5 13/8/5 9/12/5
f 16/5/6 12/13/6 10/14/6 14/7/6
f 28/15/11 25/16/11 61/16/11 64/15/11
f 37/17/12 38/18/12 51/18/12 52/17/12
f 32/19/13 31/20/13 55/20/13 56/19/13
f 35/21/14 34/22/14 45/22/14 46/21/14
f 21/23/15 17/24/15 58/24/15 60/23/15
f 24/25/11 20/26/11 42/26/11 43/25/11
f 43/25/6 42/26/6 41/27/6 44/28/6
f 20/26/14 18/27/14 41/27/14 42/26/14
f 18/27/15 22/28/15 44/28/15 41/27/15
f 22/28/12 24/25/12 43/25/12 44/28/12
f 48/29/11 47/30/11 46/21/11 45/22/11
f 40/30/5 35/21/5 46/21/5 47/30/5
f 39/29/12 40/30/12 47/30/12 48/29/12
f 34/22/6 39/29/6 48/29/6 45/22/6
f 50/31/15 49/32/15 52/17/15 51/18/15
f 38/18/6 33/31/6 50/31/6 51/18/6
f 36/32/5 37/17/5 52/17/5 49/32/5
f 33/31/14 36/32/14 49/32/14 50/31/14
f 54/33/14 53/34/14 56/19/14 55/20/14
f 31/20/16 29/33/16 54/33/16 55/20/16
f 30/34/17 32/19/17 56/19/17 53/34/17
f 29/33/18 30/34/18 53/34/18 54/33/18
f 57/35/5 59/36/5 60/23/5 58/24/5
f 23/36/12 21/23/12 60/23/12 59/36/12
f 19/35/11 23/36/11 59/36/11 57/35/11
f 17/24/14 19/35/14 57/35/14 58/24/14
f 62/37/12 63/38/12 64/15/12 61/16/12
f 26/37/15 27/38/15 63/38/15 62/37/15
f 27/38/5 28/15/5 64/15/5 63/38/5
f 25/16/6 26/37/6 62/37/6 61/16/6
f 65/39/19 66/40/19 67/41/19
f 68/42/20 69/43/20 70/44/20
f 71/45/21 72/46/21 73/47/21
f 74/48/22 75/49/22 76/50/22
f 77/51/23 78/52/23 79/53/23
f 80/54/24 81/55/24 82/56/24
f 83/57/25 84/58/25 85/59/25
f 86/60/26 87/61/26 88/62/26
f 76/50/27 65/39/27 67/41/27 74/48/27
f 66/63/28 68/42/28 70/44/28 67/64/28
f 69/43/29 71/45/29 73/47/29 70/44/29
f 72/46/30 75/65/30 74/66/30 73/47/30
f 79/53/31 76/50/31 75/49/31 77/51/31
f 71/45/32 80/54/32 82/56/32 72/46/32
f 81/55/33 78/52/33 77/51/33 82/56/33
f 88/62/34 79/53/34 78/52/34 86/60/34
f 80/54/35 83/57/35 85/59/35 81/55/35
f 84/58/36 87/61/36 86/60/36 85/59/36
f 65/39/37 88/62/37 87/61/37 66/40/37
f 83/57/38 69/67/38 68/68/38 84/58/38
f 26/37/12 25/16/12 74/66/12 67/64/12
f 34/22/11 35/21/11 68/68/11 66/69/11
f 19/35/5 17/24/5 65/39/5 76/50/5
f 27/38/12 26/37/12 67/64/12 70/44/12
f 39/29/11 34/22/11 66/69/11 87/61/11
f 17/24/5 21/23/5 88/62/5 65/39/5
f 28/15/12 27/38/12 70/44/12 73/47/12
f 22/28/6 18/27/6 69/70/6 83/57/6
f 18/27/6 20/26/6 71/71/6 69/70/6
f 35/21/11 40/30/11 84/58/11 68/68/11
f 36/32/15 33/31/15 75/65/15 72/46/15
f 25/16/12 28/15/12 73/47/12 74/66/12
f 37/17/15 36/32/15 72/46/15 82/56/15
f 20/26/6 24/25/6 80/54/6 71/71/6
f 23/36/5 19/35/5 76/50/5 79/53/5
f 33/31/15 38/18/15 77/51/15 75/65/15
f 30/34/14 29/33/14 78/52/14 81/55/14
f 21/23/5 23/36/5 79/53/5 88/62/5
f 29/33/14 31/20/14 86/60/14 78/52/14
f 38/18/15 37/17/15 82/56/15 77/51/15
f 32/19/14 30/34/14 81/55/14 85/59/14
f 24/25/6 22/28/6 83/57/6 80/54/6
f 40/30/11 39/29/11 87/61/11 84/58/11
f 31/20/14 32/19/14 85/59/14 86/60/14
f 89/1/1 90/2/1 92/3/1 91/4/1
f 91/4/2 92/3/2 96/5/2 95/6/2
f 95/6/3 96/5/3 94/7/3 93/8/3
f 93/8/4 94/7/4 90/9/4 89/10/4
f 91/11/5 95/6/5 93/8/5 89/12/5
f 96/5/6 92/13/6 90/14/6 94/7/6
f 97/1/7 98/2/7 100/3/7 99/4/7
f 99/4/8 100/3/8 104/5/8 103/6/8
f 103/6/9 104/5/9 102/7/9 101/8/9
f 101/8/10 102/7/10 98/9/10 97/10/10
f 99/11/5 103/6/5 101/8/5 97/12/5
f 104/5/6 100/13/6 98/14/6 102/7/6
o Cube.002
v -1.613421 -1.713133 -1.158610
v -1.613421 -1.511421 -1.158610
v -1.209526 -1.713133 -1.575187
v -1.209526 -1.511421 -1.575187
v 1.186887 -1.713133 1.556450
v 1.186887 -1.511421 1.556450
v 1.590782 -1.713133 1.139873
v 1.590782 -1.511421 1.139873
v -1.158096 -1.692158 1.594498
v -1.158096 -1.490446 1.594498
v -1.575294 -1.692158 1.191244
v -1.575294 -1.490446 1.191244
v 1.552655 -1.692158 -1.209981
v 1.552655 -1.490446 -1.209981
v 1.135457 -1.692158 -1.613235
v 1.135457 -1.490446 -1.613235
v -1.378008 -1.710099 1.378008
v -1.378008 1.710099 1.378008
v -1.378008 -1.710099 -1.378008
v -1.378008 1.710099 -1.378008
v 1.378008 -1.710099 1.378008
v 1.378008 1.710099 1.378008
v 1.378008 -1.710099 -1.378008
v 1.378008 1.710099 -1.378008
v -1.710099 -1.496930 -1.496930
v -1.710099 -1.496930 1.496930
v -1.710099 1.496930 1.496930
v -1.710099 1.496930 -1.496930
v 1.710099 -1.496930 -1.496930
v 1.710099 1.496930 -1.496930
v 1.710099 -1.496930 1.496931
v 1.710099 1.496930 1.496931
v -1.469510 -1.469510 -1.710099
v -1.469510 -1.469510 1.710099
v -1.469510 1.469510 1.710099
v -1.469510 1.469510 -1.710099
v 1.469510 1.469510 -1.710099
v 1.469510 -1.469510 -1.710099
v 1.469510 -1.469510 1.710099
v 1.469510 1.469510 1.710099
v -1.378008 1.570155 1.378008
v -1.378008 1.570155 -1.378008
v 1.378008 1.570155 -1.378008
v 1.378008 1.570155 1.378008
v -1.469510 -1.469510 1.507496
v -1.469510 1.469510 1.507496
v 1.469510 1.469510 1.507496
v 1.469510 -1.469510 1.507496
v -1.469510 1.469510 -1.498216
v -1.469510 -1.469510 -1.498216
v 1.469510 -1.469510 -1.498217
v 1.469510 1.469510 -1.498217
v 1.569312 1.562198 -1.548439
v 1.569312 -1.431663 -1.548439
v 1.569312 -1.431663 1.445422
v 1.569312 1.562198 1.445422
v -1.378008 -1.564898 -1.378008
v -1.378008 -1.564898 1.378008
v 1.378008 -1.564898 -1.378008
v 1.378008 -1.564898 1.378008
v -1.590564 -1.496930 -1.496930
v -1.590564 -1.496930 1.496930
v -1.590564 1.496930 1.496930
v -1.590564 1.496930 -1.496930
v -1.582724 -1.710099 1.582724
v -1.582724 -1.582724 1.710099
v -1.710099 -1.582724 1.582724
v -1.582724 1.582724 1.710099
v -1.582724 1.710099 1.582724
v -1.710099 1.582724 1.582724
v -1.582724 1.710099 -1.582724
v -1.582723 1.582724 -1.710099
v -1.710099 1.582724 -1.582724
v -1.710099 -1.582724 -1.582724
v -1.582723 -1.582724 -1.710099
v -1.582724 -1.710099 -1.582724
v 1.582724 -1.582724 -1.710099
v 1.710099 -1.582724 -1.582723
v 1.582724 -1.710099 -1.582724
v 1.582724 1.710099 -1.582724
v 1.710099 1.582724 -1.582723
v 1.582724 1.582724 -1.710099
v 1.582724 1.710099 1.582724
v 1.582724 1.582724 1.710099
v 1.710099 1.582724 1.582724
v 1.710099 -1.582724 1.582724
v 1.582724 -1.582724 1.710099
v 1.582724 -1.710099 1.582724
v -1.630208 1.478784 -1.158610
v -1.630208 1.680496 -1.158610
v -1.226313 1.478784 -1.575187
v -1.226313 1.680496 -1.575187
v 1.170100 1.478784 1.556450
v 1.170100 1.680496 1.556450
v 1.573995 1.478784 1.139873
v 1.573995 1.680496 1.139873
v -1.174883 1.499759 1.594498
v -1.174883 1.701471 1.594498
v -1.592080 1.499759 1.191244
v -1.592080 1.701471 1.191244
v 1.535868 1.499759 -1.209981
v 1.535868 1.701471 -1.209981
v 1.118671 1.499759 -1.613235
v 1.118671 1.701471 -1.613235
vn -0.7180 -0.0000 -0.6961
vn 0.6961 -0.0000 -0.7180
vn 0.7180 -0.0000 0.6961
vn -0.6961 -0.0000 0.7180
vn -0.0000 -1.0000 -0.0000
vn -0.0000 1.0000 -0.0000
vn -0.6950 -0.0000 0.7190
vn -0.7190 -0.0000 -0.6950
vn 0.6950 -0.0000 -0.7190
vn 0.7190 -0.0000 0.6950
vn -0.0000 -0.0000 1.0000
vn -1.0000 -0.0000 -0.0000
vn 0.3436 -0.0000 -0.9391
vn 1.0000 -0.0000 -0.0000
vn -0.0000 -0.0000 -1.0000
vn 0.4206 0.9072 -0.0000
vn -0.4206 -0.9072 -0.0000
vn -0.3436 -0.0000 0.9391
vn -0.5773 -0.5774 0.5774
vn -0.5774 0.5774 0.5773
vn -0.5773 0.5774 -0.5774
vn -0.5773 -0.5773 -0.5774
vn 0.5773 -0.5774 -0.5774
vn 0.5773 0.5774 -0.5774
vn 0.5773 0.5774 0.5774
vn 0.5773 -0.5773 0.5774
vn -0.7071 -0.7071 -0.0000
vn -0.7071 -0.0000 0.7071
vn -0.7071 0.7071 -0.0000
vn -0.7071 -0.0000 -0.7071
vn -0.0000 -0.7071 -0.7071
vn -0.0000 0.7071 -0.7071
vn 0.7071 -0.0000 -0.7071
vn 0.7071 -0.7071 -0.0000
vn 0.7071 0.7071 -0.0000
vn 0.7071 -0.0000 0.7071
vn -0.0000 -0.7071 0.7071
vn -0.0000 0.7071 0.7071
vt 0.375000 0.000000
vt 0.625000 0.000000
vt 0.625000 0.250000
vt 0.375000 0.250000
vt 0.625000 0.500000
vt 0.375000 0.500000
vt 0.625000 0.750000
vt 0.375000 0.750000
vt 0.625000 1.000000
vt 0.375000 1.000000
vt 0.125000 0.500000
vt 0.125000 0.750000
vt 0.875000 0.500000
vt 0.875000 0.750000
vt 0.609418 0.234418
vt 0.390582 0.234418
vt 0.607414 0.482414
vt 0.392586 0.482414
vt 0.609418 0.734418
vt 0.390582 0.734418
vt 0.607414 0.982414
vt 0.392586 0.982414
vt 0.350726 0.725726
vt 0.149274 0.725726
vt 0.649274 0.524274
vt 0.850726 0.524274
vt 0.850726 0.725726
vt 0.649274 0.725726
vt 0.392586 0.767586
vt 0.607414 0.767586
vt 0.392586 0.267586
vt 0.607414 0.267586
vt 0.390582 0.515582
vt 0.609418 0.515582
vt 0.149274 0.524274
vt 0.350726 0.524274
vt 0.390582 0.015582
vt 0.609418 0.015582
vt 0.134311 0.740690
vt 0.131983 0.747672
vt 0.125000 0.740689
vt 0.615690 0.000000
vt 0.622672 0.006983
vt 0.615690 0.009311
vt 0.623448 0.248448
vt 0.615690 0.257448
vt 0.615690 0.240690
vt 0.125000 0.509310
vt 0.131983 0.502328
vt 0.134311 0.509310
vt 0.376862 0.494414
vt 0.381517 0.508379
vt 0.365689 0.509310
vt 0.629655 0.502793
vt 0.615690 0.507448
vt 0.615690 0.490689
vt 0.629655 0.747207
vt 0.615690 0.759310
vt 0.615690 0.742552
vt 0.381517 0.741621
vt 0.376862 0.755586
vt 0.365689 0.740690
vt 0.384310 0.000000
vt 0.384311 0.009311
vt 0.384311 0.259311
vt 0.384311 0.240690
vt 0.625000 0.990690
vt 0.615690 0.990690
vt 0.384311 0.990690
vt 0.865689 0.740690
vt 0.865690 0.509310
s 0
f 105/72/39 106/73/39 108/74/39 107/75/39
f 107/75/40 108/74/40 112/76/40 111/77/40
f 111/77/41 112/76/41 110/78/41 109/79/41
f 109/79/42 110/78/42 106/80/42 105/81/42
f 107/82/43 111/77/43 109/79/43 105/83/43
f 112/76/44 108/84/44 106/85/44 110/78/44
f 113/72/45 114/73/45 116/74/45 115/75/45
f 115/75/46 116/74/46 120/76/46 119/77/46
f 119/77/47 120/76/47 118/78/47 117/79/47
f 117/79/48 118/78/48 114/80/48 113/81/48
f 115/82/43 119/77/43 117/79/43 113/83/43
f 120/76/44 116/84/44 114/85/44 118/78/44
f 132/86/49 129/87/49 165/87/49 168/86/49
f 141/88/50 142/89/50 155/89/50 156/88/50
f 136/90/51 135/91/51 159/91/51 160/90/51
f 139/92/52 138/93/52 149/93/52 150/92/52
f 125/94/53 121/95/53 162/95/53 164/94/53
f 128/96/49 124/97/49 146/97/49 147/96/49
f 147/96/44 146/97/44 145/98/44 148/99/44
f 124/97/52 122/98/52 145/98/52 146/97/52
f 122/98/53 126/99/53 148/99/53 145/98/53
f 126/99/50 128/96/50 147/96/50 148/99/50
f 152/100/49 151/101/49 150/92/49 149/93/49
f 144/101/43 139/92/43 150/92/43 151/101/43
f 143/100/50 144/101/50 151/101/50 152/100/50
f 138/93/44 143/100/44 152/100/44 149/93/44
f 154/102/53 153/103/53 156/88/53 155/89/53
f 142/89/44 137/102/44 154/102/44 155/89/44
f 140/103/43 141/88/43 156/88/43 153/103/43
f 137/102/52 140/103/52 153/103/52 154/102/52
f 158/104/52 157/105/52 160/90/52 159/91/52
f 135/91/54 133/104/54 158/104/54 159/91/54
f 134/105/55 136/90/55 160/90/55 157/105/55
f 133/104/56 134/105/56 157/105/56 158/104/56
f 161/106/43 163/107/43 164/94/43 162/95/43
f 127/107/50 125/94/50 164/94/50 163/107/50
f 123/106/49 127/107/49 163/107/49 161/106/49
f 121/95/52 123/106/52 161/106/52 162/95/52
f 166/108/50 167/109/50 168/86/50 165/87/50
f 130/108/53 131/109/53 167/109/53 166/108/53
f 131/109/43 132/86/43 168/86/43 167/109/43
f 129/87/44 130/108/44 166/108/44 165/87/44
f 169/110/57 170/111/57 171/112/57
f 172/113/58 173/114/58 174/115/58
f 175/116/59 176/117/59 177/118/59
f 178/119/60 179/120/60 180/121/60
f 181/122/61 182/123/61 183/124/61
f 184/125/62 185/126/62 186/127/62
f 187/128/63 188/129/63 189/130/63
f 190/131/64 191/132/64 192/133/64
f 180/121/65 169/110/65 171/112/65 178/119/65
f 170/134/66 172/113/66 174/115/66 171/135/66
f 173/114/67 175/116/67 177/118/67 174/115/67
f 176/117/68 179/136/68 178/137/68 177/118/68
f 183/124/69 180/121/69 179/120/69 181/122/69
f 175/116/70 184/125/70 186/127/70 176/117/70
f 185/126/71 182/123/71 181/122/71 186/127/71
f 192/133/72 183/124/72 182/123/72 190/131/72
f 184/125/73 187/128/73 189/130/73 185/126/73
f 188/129/74 191/132/74 190/131/74 189/130/74
f 169/110/75 192/133/75 191/132/75 170/111/75
f 187/128/76 173/138/76 172/139/76 188/129/76
f 130/108/50 129/87/50 178/137/50 171/135/50
f 138/93/49 139/92/49 172/139/49 170/140/49
f 123/106/43 121/95/43 169/110/43 180/121/43
f 131/109/50 130/108/50 171/135/50 174/115/50
f 143/100/49 138/93/49 170/140/49 191/132/49
f 121/95/43 125/94/43 192/133/43 169/110/43
f 132/86/50 131/109/50 174/115/50 177/118/50
f 126/99/44 122/98/44 173/141/44 187/128/44
f 122/98/44 124/97/44 175/142/44 173/141/44
f 139/92/49 144/101/49 188/129/49 172/139/49
f 140/103/53 137/102/53 179/136/53 176/117/53
f 129/87/50 132/86/50 177/118/50 178/137/50
f 141/88/53 140/103/53 176/117/53 186/127/53
f 124/97/44 128/96/44 184/125/44 175/142/44
f 127/107/43 123/106/43 180/121/43 183/124/43
f 137/102/53 142/89/53 181/122/53 179/136/53
f 134/105/52 133/104/52 182/123/52 185/126/52
f 125/94/43 127/107/43 183/124/43 192/133/43
f 133/104/52 135/91/52 190/131/52 182/123/52
f 142/89/53 141/88/53 186/127/53 181/122/53
f 136/90/52 134/105/52 185/126/52 189/130/52
f 128/96/44 126/99/44 187/128/44 184/125/44
f 144/101/49 143/100/49 191/132/49 188/129/49
f 135/91/52 136/90/52 189/130/52 190/131/52
f 193/72/39 194/73/39 196/74/39 195/75/39
f 195/75/40 196/74/40 200/76/40 199/77/40
f 199/77/41 200/76/41 198/78/41 197/79/41
f 197/79/42 198/78/42 194/80/42 193/81/42
f 195/82/43 199/77/43 197/79/43 193/83/43
f 200/76/44 196/84/44 194/85/44 198/78/44
f 201/72/45 202/73/45 204/74/45 203/75/45
f 203/75/46 204/74/46 208/76/46 207/77/46
f 207/77/47 208/76/47 206/78/47 205/79/47
f 205/79/48 206/78/48 202/80/48 201/81/48
f 203/82/43 207/77/43 205/79/43 201/83/43
f 208/76/44 204/84/44 202/85/44 206/78/44
o Cube.003
v 5.811040 -1.713133 -2.563449
v 5.811040 -1.511421 -2.563449
v 6.004018 -1.713133 -2.016249
v 6.004018 -1.511421 -2.016249
v 2.132663 -1.713133 -1.266215
v 2.132663 -1.511421 -1.266215
v 2.325641 -1.713133 -0.719016
v 2.325641 -1.511421 -0.719016
v 3.143446 -1.692158 -3.382512
v 3.143446 -1.490446 -3.382512
v 3.690348 -1.692158 -3.576331
v 3.690348 -1.490446 -3.576331
v 4.446333 -1.692158 0.293866
v 4.446333 -1.490446 0.293866
v 4.993235 -1.692158 0.100047
v 4.993235 -1.490446 0.100047
v 3.435244 -1.710099 -3.482927
v 3.435244 1.710099 -3.482927
v 5.902563 -1.710099 -2.254939
v 5.902563 1.710099 -2.254939
v 2.207255 -1.710099 -1.015607
v 2.207255 1.710099 -1.015607
v 4.674575 -1.710099 0.212381
v 4.674575 1.710099 0.212381
v 6.156997 -1.496930 -2.499255
v 3.476747 -1.496930 -3.833219
v 3.476747 1.496930 -3.833219
v 6.156997 1.496930 -2.499255
v 4.633072 -1.496930 0.562673
v 4.633072 1.496930 0.562673
v 1.952821 -1.496930 -0.771291
v 1.952821 1.496930 -0.771291
v 6.240638 -1.469510 -2.188888
v 3.178710 -1.469510 -3.712813
v 3.178710 1.469510 -3.712813
v 6.240638 1.469510 -2.188888
v 4.931109 1.469510 0.442267
v 4.931109 -1.469510 0.442267
v 1.869181 -1.469510 -1.081658
v 1.869181 1.469510 -1.081658
v 3.435244 1.570155 -3.482927
v 5.902563 1.570155 -2.254939
v 4.674575 1.570155 0.212381
v 2.207255 1.570155 -1.015607
v 3.360090 -1.469510 -3.622540
v 3.360090 1.469510 -3.622540
v 2.050560 1.469510 -0.991385
v 2.050560 -1.469510 -0.991385
v 6.050950 1.469510 -2.283295
v 6.050950 -1.469510 -2.283295
v 4.741422 -1.469510 0.347860
v 4.741422 1.469510 0.347860
v 4.741915 1.562198 0.459585
v 4.741915 -1.431663 0.459585
v 2.061664 -1.431663 -0.874379
v 2.061664 1.562198 -0.874379
v 5.902563 -1.564898 -2.254939
v 3.435244 -1.564898 -3.482927
v 4.674575 -1.564898 0.212381
v 2.207255 -1.564898 -1.015607
v 6.103736 -1.496930 -2.392241
v 3.423486 -1.496930 -3.726205
v 3.423486 1.496930 -3.726205
v 6.103736 1.496930 -2.392241
v 3.343186 -1.710099 -3.757413
v 3.229154 -1.582724 -3.814167
v 3.399940 -1.582724 -3.871446
v 3.229154 1.582724 -3.814167
v 3.343186 1.710099 -3.757413
v 3.399940 1.582724 -3.871446
v 6.177050 1.710099 -2.346996
v 6.291081 1.582724 -2.290242
v 6.233804 1.582724 -2.461028
v 6.233804 -1.582724 -2.461028
v 6.291081 -1.582724 -2.290242
v 6.177050 -1.710099 -2.346996
v 4.880664 -1.582724 0.543621
v 4.709878 -1.582724 0.600900
v 4.766632 -1.710099 0.486867
v 4.766632 1.710099 0.486867
v 4.709878 1.582724 0.600900
v 4.880664 1.582724 0.543621
v 1.932769 1.710099 -0.923550
v 1.818737 1.582724 -0.980304
v 1.876015 1.582724 -0.809517
v 1.876015 -1.582724 -0.809517
v 1.818737 -1.582724 -0.980304
v 1.932769 -1.710099 -0.923550
v 5.818520 1.478784 -2.578477
v 5.818520 1.680496 -2.578477
v 6.011497 1.478784 -2.031277
v 6.011497 1.680496 -2.031277
v 2.140142 1.478784 -1.281244
v 2.140142 1.680496 -1.281244
v 2.333120 1.478784 -0.734044
v 2.333120 1.680496 -0.734044
v 3.150925 1.499759 -3.397540
v 3.150925 1.701471 -3.397540
v 3.697827 1.499759 -3.591359
v 3.697827 1.701471 -3.591359
v 4.453812 1.499759 0.278838
v 4.453812 1.701471 0.278838
v 5.000714 1.499759 0.085019
v 5.000714 1.701471 0.085019
vn 0.9431 -0.0000 -0.3326
vn 0.3326 -0.0000 0.9431
vn -0.9431 -0.0000 0.3326
vn -0.3326 -0.0000 -0.9431
vn -0.0000 -1.0000 -0.0000
vn -0.0000 1.0000 -0.0000
vn -0.3340 -0.0000 -0.9426
vn 0.9426 -0.0000 -0.3340
vn 0.3340 -0.0000 0.9426
vn -0.9426 -0.0000 0.3340
vn -0.8952 -0.0000 -0.4456
vn 0.4456 -0.0000 -0.8952
vn 0.6877 -0.0000 0.7260
vn -0.4456 -0.0000 0.8952
vn 0.8952 -0.0000 0.4456
vn -0.1874 0.9072 0.3765
vn 0.1874 -0.9072 -0.3765
vn -0.6877 -0.0000 -0.7260
vn -0.2596 -0.5774 -0.7741
vn -0.2596 0.5774 -0.7741
vn 0.7741 0.5774 -0.2596
vn 0.7741 -0.5773 -0.2596
vn 0.2596 -0.5774 0.7741
vn 0.2596 0.5774 0.7741
vn -0.7741 0.5774 0.2596
vn -0.7741 -0.5773 0.2596
vn 0.3151 -0.7071 -0.6330
vn -0.3180 -0.0000 -0.9481
vn 0.3151 0.7071 -0.6330
vn 0.9481 -0.0000 -0.3180
vn 0.6330 -0.7071 0.3151
vn 0.6330 0.7071 0.3151
vn 0.3180 -0.0000 0.9481
vn -0.3151 -0.7071 0.6330
vn -0.3151 0.7071 0.6330
vn -0.9481 -0.0000 0.3180
vn -0.6330 -0.7071 -0.3151
vn -0.6330 0.7071 -0.3151
vt 0.375000 0.000000
vt 0.625000 0.000000
vt 0.625000 0.250000
vt 0.375000 0.250000
vt 0.625000 0.500000
vt 0.375000 0.500000
vt 0.625000 0.750000
vt 0.375000 0.750000
vt 0.625000 1.000000
vt 0.375000 1.000000
vt 0.125000 0.500000
vt 0.125000 0.750000
vt 0.875000 0.500000
vt 0.875000 0.750000
vt 0.609418 0.234418
vt 0.390582 0.234418
vt 0.607414 0.482414
vt 0.392586 0.482414
vt 0.609418 0.734418
vt 0.390582 0.734418
vt 0.607414 0.982414
vt 0.392586 0.982414
vt 0.350726 0.725726
vt 0.149274 0.725726
vt 0.649274 0.524274
vt 0.850726 0.524274
vt 0.850726 0.725726
vt 0.649274 0.725726
vt 0.392586 0.767586
vt 0.607414 0.767586
vt 0.392586 0.267586
vt 0.607414 0.267586
vt 0.390582 0.515582
vt 0.609418 0.515582
vt 0.149274 0.524274
vt 0.350726 0.524274
vt 0.390582 0.015582
vt 0.609418 0.015582
vt 0.134311 0.740690
vt 0.131983 0.747672
vt 0.125000 0.740689
vt 0.615690 0.000000
vt 0.622672 0.006983
vt 0.615690 0.009311
vt 0.623448 0.248448
vt 0.615690 0.257448
vt 0.615690 0.240690
vt 0.125000 0.509310
vt 0.131983 0.502328
vt 0.134311 0.509310
vt 0.376862 0.494414
vt 0.381517 0.508379
vt 0.365689 0.509310
vt 0.629655 0.502793
vt 0.615690 0.507448
vt 0.615690 0.490689
vt 0.629655 0.747207
vt 0.615690 0.759310
vt 0.615690 0.742552
vt 0.381517 0.741621
vt 0.376862 0.755586
vt 0.365689 0.740690
vt 0.384310 0.000000
vt 0.384311 0.009311
vt 0.384311 0.259311
vt 0.384311 0.240690
vt 0.625000 0.990690
vt 0.615690 0.990690
vt 0.384311 0.990690
vt 0.865689 0.740690
vt 0.865690 0.509310
s 0
f 209/143/77 210/144/77 212/145/77 211/146/77
f 211/146/78 212/145/78 216/147/78 215/148/78
f 215/148/79 216/147/79 214/149/79 213/150/79
f 213/150/80 214/149/80 210/151/80 209/152/80
f 211/153/81 215/148/81 213/150/81 209/154/81
f 216/147/82 212/155/82 210/156/82 214/149/82
f 217/143/83 218/144/83 220/145/83 219/146/83
f 219/146/84 220/145/84 224/147/84 223/148/84
f 223/148/85 224/147/85 222/149/85 221/150/85
f 221/150/86 222/149/86 218/151/86 217/152/86
f 219/153/81 223/148/81 221/150/81 217/154/81
f 224/147/82 220/155/82 218/156/82 222/149/82
f 236/157/87 233/158/87 269/158/87 272/157/87
f 245/159/88 246/160/88 259/160/88 260/159/88
f 240/161/89 239/162/89 263/162/89 264/161/89
f 243/163/90 242/164/90 253/164/90 254/163/90
f 229/165/91 225/166/91 266/166/91 268/165/91
f 232/167/87 228/168/87 250/168/87 251/167/87
f 251/167/82 250/168/82 249/169/82 252/170/82
f 228/168/90 226/169/90 249/169/90 250/168/90
f 226/169/91 230/170/91 252/170/91 249/169/91
f 230/170/88 232/167/88 251/167/88 252/170/88
f 256/171/87 255/172/87 254/163/87 253/164/87
f 248/172/81 243/163/81 254/163/81 255/172/81
f 247/171/88 248/172/88 255/172/88 256/171/88
f 242/164/82 247/171/82 256/171/82 253/164/82
f 258/173/91 257/174/91 260/159/91 259/160/91
f 246/160/82 241/173/82 258/173/82 259/160/82
f 244/174/81 245/159/81 260/159/81 257/174/81
f 241/173/90 244/174/90 257/174/90 258/173/90
f 262/175/90 261/176/90 264/161/90 263/162/90
f 239/162/92 237/175/92 262/175/92 263/162/92
f 238/176/93 240/161/93 264/161/93 261/176/93
f 237/175/94 238/176/94 261/176/94 262/175/94
f 265/177/81 267/178/81 268/165/81 266/166/81
f 231/178/88 229/165/88 268/165/88 267/178/88
f 227/177/87 231/178/87 267/178/87 265/177/87
f 225/166/90 227/177/90 265/177/90 266/166/90
f 270/179/88 271/180/88 272/157/88 269/158/88
f 234/179/91 235/180/91 271/180/91 270/179/91
f 235/180/81 236/157/81 272/157/81 271/180/81
f 233/158/82 234/179/82 270/179/82 269/158/82
f 273/181/95 274/182/95 275/183/95
f 276/184/96 277/185/96 278/186/96
f 279/187/97 280/188/97 281/189/97
f 282/190/98 283/191/98 284/192/98
f 285/193/99 286/194/99 287/195/99
f 288/196/100 289/197/100 290/198/100
f 291/199/101 292/200/101 293/201/101
f 294/202/102 295/203/102 296/204/102
f 284/192/103 273/181/103 275/183/103 282/190/103
f 274/205/104 276/184/104 278/186/104 275/206/104
f 277/185/105 279/187/105 281/189/105 278/186/105
f 280/188/106 283/207/106 282/208/106 281/189/106
f 287/195/107 284/192/107 283/191/107 285/193/107
f 279/187/108 288/196/108 290/198/108 280/188/108
f 289/197/109 286/194/109 285/193/109 290/198/109
f 296/204/110 287/195/110 286/194/110 294/202/110
f 288/196/111 291/199/111 293/201/111 289/197/111
f 292/200/112 295/203/112 294/202/112 293/201/112
f 273/181/113 296/204/113 295/203/113 274/182/113
f 291/199/114 277/209/114 276/210/114 292/200/114
f 234/179/88 233/158/88 282/208/88 275/206/88
f 242/164/87 243/163/87 276/210/87 274/211/87
f 227/177/81 225/166/81 273/181/81 284/192/81
f 235/180/88 234/179/88 275/206/88 278/186/88
f 247/171/87 242/164/87 274/211/87 295/203/87
f 225/166/81 229/165/81 296/204/81 273/181/81
f 236/157/88 235/180/88 278/186/88 281/189/88
f 230/170/82 226/169/82 277/212/82 291/199/82
f 226/169/82 228/168/82 279/213/82 277/212/82
f 243/163/87 248/172/87 292/200/87 276/210/87
f 244/174/91 241/173/91 283/207/91 280/188/91
f 233/158/88 236/157/88 281/189/88 282/208/88
f 245/159/91 244/174/91 280/188/91 290/198/91
f 228/168/82 232/167/82 288/196/82 279/213/82
f 231/178/81 227/177/81 284/192/81 287/195/81
f 241/173/91 246/160/91 285/193/91 283/207/91
f 238/176/90 237/175/90 286/194/90 289/197/90
f 229/165/81 231/178/81 287/195/81 296/204/81
f 237/175/90 239/162/90 294/202/90 286/194/90
f 246/160/91 245/159/91 290/198/91 285/193/91
f 240/161/90 238/176/90 289/197/90 293/201/90
f 232/167/82 230/170/82 291/199/82 288/196/82
f 248/172/87 247/171/87 295/203/87 292/200/87
f 239/162/90 240/161/90 293/201/90 294/202/90
f 297/143/77 298/144/77 300/145/77 299/146/77
f 299/146/78 300/145/78 304/147/78 303/148/78
f 303/148/79 304/147/79 302/149/79 301/150/79
f 301/150/80 302/149/80 298/151/80 297/152/80
f 299/153/81 303/148/81 301/150/81 297/154/81
f 304/147/82 300/155/82 298/156/82 302/149/82
f 305/143/83 306/144/83 308/145/83 307/146/83
f 307/146/84 308/145/84 312/147/84 311/148/84
f 311/148/85 312/147/85 310/149/85 309/150/85
f 309/150/86 310/149/86 306/151/86 305/152/86
f 307/153/81 311/148/81 309/150/81 305/154/81
f 312/147/82 308/155/82 306/156/82 310/149/82
o Cube.004
v 3.182308 1.798497 -0.474901
v 2.980596 1.798497 -0.474901
v 3.182308 2.202393 -0.891478
v 2.980596 2.202393 -0.891478
v 3.182307 4.598805 2.240159
v 2.980595 4.598805 2.240159
v 3.182307 5.002700 1.823582
v 2.980595 5.002700 1.823582
v 3.161332 2.253822 2.278207
v 2.959620 2.253822 2.278207
v 3.161333 1.836624 1.874952
v 2.959620 1.836624 1.874952
v 3.161333 4.964573 -0.526272
v 2.959620 4.964573 -0.526272
v 3.161333 4.547376 -0.929526
v 2.959621 4.547376 -0.929526
v 3.179273 2.033910 2.061717
v -0.240925 2.033910 2.061716
v 3.179273 2.033911 -0.694299
v -0.240924 2.033911 -0.694299
v 3.179273 4.789926 2.061717
v -0.240925 4.789926 2.061717
v 3.179273 4.789927 -0.694298
v -0.240924 4.789927 -0.694299
v 2.966105 1.701820 -0.813222
v 2.966105 1.701819 2.180639
v -0.027756 1.701819 2.180639
v -0.027756 1.701820 -0.813222
v 2.966105 5.122018 -0.813221
v -0.027756 5.122018 -0.813221
v 2.966105 5.122017 2.180640
v -0.027756 5.122017 2.180640
v 2.938685 1.942409 -1.026390
v 2.938684 1.942408 2.393807
v -0.000336 1.942408 2.393807
v -0.000335 1.942409 -1.026390
v -0.000335 4.881429 -1.026390
v 2.938685 4.881429 -1.026389
v 2.938684 4.881428 2.393808
v -0.000336 4.881428 2.393808
v -0.100981 2.033910 2.061716
v -0.100981 2.033911 -0.694299
v -0.100981 4.789927 -0.694299
v -0.100981 4.789926 2.061717
v 2.938684 1.942408 2.191205
v -0.000336 1.942408 2.191205
v -0.000336 4.881428 2.191205
v 2.938684 4.881428 2.191206
v -0.000335 1.942409 -0.814508
v 2.938685 1.942409 -0.814508
v 2.938685 4.881429 -0.814507
v -0.000335 4.881429 -0.814508
v -0.093023 4.981231 -0.864730
v 2.900838 4.981231 -0.864730
v 2.900837 4.981231 2.129131
v -0.093024 4.981231 2.129130
v 3.034072 2.033911 -0.694299
v 3.034072 2.033910 2.061717
v 3.034072 4.789927 -0.694298
v 3.034072 4.789926 2.061717
v 2.966105 1.821355 -0.813222
v 2.966105 1.821354 2.180639
v -0.027756 1.821354 2.180639
v -0.027756 1.821355 -0.813222
v 3.179273 1.829194 2.266432
v 3.051898 1.829194 2.393807
v 3.051898 1.701819 2.266433
v -0.113549 1.829194 2.393807
v -0.240925 1.829194 2.266432
v -0.113549 1.701819 2.266432
v -0.240924 1.829195 -0.899015
v -0.113549 1.829195 -1.026390
v -0.113549 1.701820 -0.899016
v 3.051898 1.701820 -0.899015
v 3.051898 1.829195 -1.026390
v 3.179274 1.829195 -0.899015
v 3.051898 4.994642 -1.026389
v 3.051898 5.122017 -0.899014
v 3.179273 4.994642 -0.899014
v -0.240924 4.994642 -0.899015
v -0.113549 5.122017 -0.899015
v -0.113549 4.994642 -1.026390
v -0.240925 4.994642 2.266433
v -0.113549 4.994641 2.393808
v -0.113549 5.122017 2.266433
v 3.051898 5.122017 2.266433
v 3.051898 4.994642 2.393808
v 3.179273 4.994642 2.266433
v -0.009609 1.781711 -0.474902
v -0.211321 1.781711 -0.474902
v -0.009609 2.185606 -0.891478
v -0.211321 2.185606 -0.891479
v -0.009609 4.582018 2.240159
v -0.211322 4.582018 2.240158
v -0.009609 4.985914 1.823582
v -0.211322 4.985914 1.823581
v -0.030585 2.237035 2.278206
v -0.232297 2.237035 2.278206
v -0.030585 1.819838 1.874952
v -0.232297 1.819838 1.874952
v -0.030585 4.947787 -0.526272
v -0.232297 4.947787 -0.526272
v -0.030584 4.530590 -0.929526
v -0.232296 4.530590 -0.929526
vn -0.0000 -0.7180 -0.6961
vn -0.0000 0.6961 -0.7180
vn -0.0000 0.7180 0.6961
vn -0.0000 -0.6961 0.7180
vn 1.0000 -0.0000 -0.0000
vn -1.0000 -0.0000 -0.0000
vn -0.0000 -0.6950 0.7190
vn -0.0000 -0.7190 -0.6950
vn -0.0000 0.6950 -0.7190
vn -0.0000 0.7190 0.6950
vn -0.0000 -0.0000 1.0000
vn -0.0000 -1.0000 -0.0000
vn -0.0000 0.3436 -0.9391
vn -0.0000 1.0000 -0.0000
vn -0.0000 -0.0000 -1.0000
vn -0.9072 0.4206 -0.0000
vn 0.9072 -0.4206 -0.0000
vn -0.0000 -0.3436 0.9391
vn 0.5774 -0.5774 0.5774
vn -0.5774 -0.5774 0.5773
vn -0.5774 -0.5773 -0.5774
vn 0.5774 -0.5773 -0.5774
vn 0.5774 0.5773 -0.5773
vn -0.5774 0.5773 -0.5774
vn -0.5774 0.5773 0.5774
vn 0.5773 0.5773 0.5774
vn 0.7071 -0.7071 -0.0000
vn -0.0000 -0.7071 0.7071
vn -0.7071 -0.7071 -0.0000
vn -0.0000 -0.7071 -0.7071
vn 0.7071 -0.0000 -0.7071
vn -0.7071 -0.0000 -0.7071
vn -0.0000 0.7071 -0.7071
vn 0.7071 0.7071 -0.0000
vn -0.7071 0.7071 -0.0000
vn -0.0000 0.7071 0.7071
vn 0.7071 -0.0000 0.7071
vn -0.7071 -0.0000 0.7071
vt 0.375000 0.000000
vt 0.625000 0.000000
vt 0.625000 0.250000
vt 0.375000 0.250000
vt 0.625000 0.500000
vt 0.375000 0.500000
vt 0.625000 0.750000
vt 0.375000 0.750000
vt 0.625000 1.000000
vt 0.375000 1.000000
vt 0.125000 0.500000
vt 0.125000 0.750000
vt 0.875000 0.500000
vt 0.875000 0.750000
vt 0.609418 0.234418
vt 0.390582 0.234418
vt 0.607414 0.482414
vt 0.392586 0.482414
vt 0.609418 0.734418
vt 0.390582 0.734418
vt 0.607414 0.982414
vt 0.392586 0.982414
vt 0.350726 0.725726
vt 0.149274 0.725726
vt 0.649274 0.524274
vt 0.850726 0.524274
vt 0.850726 0.725726
vt 0.649274 0.725726
vt 0.392586 0.767586
vt 0.607414 0.767586
vt 0.392586 0.267586
vt 0.607414 0.267586
vt 0.390582 0.515582
vt 0.609418 0.515582
vt 0.149274 0.524274
vt 0.350726 0.524274
vt 0.390582 0.015582
vt 0.609418 0.015582
vt 0.134311 0.740690
vt 0.131983 0.747672
vt 0.125000 0.740689
vt 0.615690 0.000000
vt 0.622672 0.006983
vt 0.615690 0.009311
vt 0.623448 0.248448
vt 0.615690 0.257448
vt 0.615690 0.240690
vt 0.125000 0.509310
vt 0.131983 0.502328
vt 0.134311 0.509310
vt 0.376862 0.494414
vt 0.381517 0.508379
vt 0.365689 0.509310
vt 0.629655 0.502793
vt 0.615690 0.507448
vt 0.615690 0.490689
vt 0.629655 0.747207
vt 0.615690 0.759310
vt 0.615690 0.742552
vt 0.381517 0.741621
vt 0.376862 0.755586
vt 0.365689 0.740690
vt 0.384310 0.000000
vt 0.384311 0.009311
vt 0.384311 0.259311
vt 0.384311 0.240690
vt 0.625000 0.990690
vt 0.615690 0.990690
vt 0.384311 0.990690
vt 0.865689 0.740690
vt 0.865690 0.509310
s 0
f 313/214/115 314/215/115 316/216/115 315/217/115
f 315/217/116 316/216/116 320/218/116 319/219/116
f 319/219/117 320/218/117 318/220/117 317/221/117
f 317/221/118 318/220/118 314/222/118 313/223/118
f 315/224/119 319/219/119 317/221/119 313/225/119
f 320/218/120 316/226/120 314/227/120 318/220/120
f 321/214/121 322/215/121 324/216/121 323/217/121
f 323/217/122 324/216/122 328/218/122 327/219/122
f 327/219/123 328/218/123 326/220/123 325/221/123
f 325/221/124 326/220/124 322/222/124 321/223/124
f 323/224/119 327/219/119 325/221/119 321/225/119
f 328/218/120 324/226/120 322/227/120 326/220/120
f 340/228/125 337/229/125 373/229/125 376/228/125
f 349/230/126 350/231/126 363/231/126 364/230/126
f 344/232/127 343/233/127 367/233/127 368/232/127
f 347/234/128 346/235/128 357/235/128 358/234/128
f 333/236/129 329/237/129 370/237/129 372/236/129
f 336/238/125 332/239/125 354/239/125 355/238/125
f 355/238/120 354/239/120 353/240/120 356/241/120
f 332/239/128 330/240/128 353/240/128 354/239/128
f 330/240/129 334/241/129 356/241/129 353/240/129
f 334/241/126 336/238/126 355/238/126 356/241/126
f 360/242/125 359/243/125 358/234/125 357/235/125
f 352/243/119 347/234/119 358/234/119 359/243/119
f 351/242/126 352/243/126 359/243/126 360/242/126
f 346/235/120 351/242/120 360/242/120 357/235/120
f 362/244/129 361/245/129 364/230/129 363/231/129
f 350/231/120 345/244/120 362/244/120 363/231/120
f 348/245/119 349/230/119 364/230/119 361/245/119
f 345/244/128 348/245/128 361/245/128 362/244/128
f 366/246/128 365/247/128 368/232/128 367/233/128
f 343/233/130 341/246/130 366/246/130 367/233/130
f 342/247/131 344/232/131 368/232/131 365/247/131
f 341/246/132 342/247/132 365/247/132 366/246/132
f 369/248/119 371/249/119 372/236/119 370/237/119
f 335/249/126 333/236/126 372/236/126 371/249/126
f 331/248/125 335/249/125 371/249/125 369/248/125
f 329/237/128 331/248/128 369/248/128 370/237/128
f 374/250/126 375/251/126 376/228/126 373/229/126
f 338/250/129 339/251/129 375/251/129 374/250/129
f 339/251/119 340/228/119 376/228/119 375/251/119
f 337/229/120 338/250/120 374/250/120 373/229/120
f 377/252/133 378/253/133 379/254/133
f 380/255/134 381/256/134 382/257/134
f 383/258/135 384/259/135 385/260/135
f 386/261/136 387/262/136 388/263/136
f 389/264/137 390/265/137 391/266/137
f 392/267/138 393/268/138 394/269/138
f 395/270/139 396/271/139 397/272/139
f 398/273/140 399/274/140 400/275/140
f 388/263/141 377/252/141 379/254/141 386/261/141
f 378/276/142 380/255/142 382/257/142 379/277/142
f 381/256/143 383/258/143 385/260/143 382/257/143
f 384/259/144 387/278/144 386/279/144 385/260/144
f 391/266/145 388/263/145 387/262/145 389/264/145
f 383/258/146 392/267/146 394/269/146 384/259/146
f 393/268/147 390/265/147 389/264/147 394/269/147
f 400/275/148 391/266/148 390/265/148 398/273/148
f 392/267/149 395/270/149 397/272/149 393/268/149
f 396/271/150 399/274/150 398/273/150 397/272/150
f 377/252/151 400/275/151 399/274/151 378/253/151
f 395/270/152 381/280/152 380/281/152 396/271/152
f 338/250/126 337/229/126 386/279/126 379/277/126
f 346/235/125 347/234/125 380/281/125 378/282/125
f 331/248/119 329/237/119 377/252/119 388/263/119
f 339/251/126 338/250/126 379/277/126 382/257/126
f 351/242/125 346/235/125 378/282/125 399/274/125
f 329/237/119 333/236/119 400/275/119 377/252/119
f 340/228/126 339/251/126 382/257/126 385/260/126
f 334/241/120 330/240/120 381/283/120 395/270/120
f 330/240/120 332/239/120 383/284/120 381/283/120
f 347/234/125 352/243/125 396/271/125 380/281/125
f 348/245/129 345/244/129 387/278/129 384/259/129
f 337/229/126 340/228/126 385/260/126 386/279/126
f 349/230/129 348/245/129 384/259/129 394/269/129
f 332/239/120 336/238/120 392/267/120 383/284/120
f 335/249/119 331/248/119 388/263/119 391/266/119
f 345/244/129 350/231/129 389/264/129 387/278/129
f 342/247/128 341/246/128 390/265/128 393/268/128
f 333/236/119 335/249/119 391/266/119 400/275/119
f 341/246/128 343/233/128 398/273/128 390/265/128
f 350/231/129 349/230/129 394/269/129 389/264/129
f 344/232/128 342/247/128 393/268/128 397/272/128
f 336/238/120 334/241/120 395/270/120 392/267/120
f 352/243/125 351/242/125 399/274/125 396/271/125
f 343/233/128 344/232/128 397/272/128 398/273/128
f 401/214/115 402/215/115 404/216/115 403/217/115
f 403/217/116 404/216/116 408/218/116 407/219/116
f 407/219/117 408/218/117 406/220/117 405/221/117
f 405/221/118 406/220/118 402/222/118 401/223/118
f 403/224/119 407/219/119 405/221/119 401/225/119
f 408/218/120 404/226/120 402/227/120 406/220/120
f 409/214/121 410/215/121 412/216/121 411/217/121
f 411/217/122 412/216/122 416/218/122 415/219/122
f 415/219/123 416/218/123 414/220/123 413/221/123
f 413/221/124 414/220/124 410/222/124 409/223/124
f 411/224/119 415/219/119 413/221/119 409/225/119
f 416/218/120 412/226/120 410/227/120 414/220/120
