# Blender 5.2.0 LTS
# www.blender.org
mtllib Tangle.mtl
o Cube
v 0.015310 0.003775 0.313245
v 0.015310 0.311799 0.049373
v 0.015310 0.003775 -0.153380
v 0.015310 0.311799 -0.091507
v 0.186976 0.003775 0.313245
v 0.159679 0.311799 0.049373
v 0.186976 0.003775 -0.153380
v 0.159679 0.311799 -0.091507
v 0.015310 0.070460 0.313245
v 0.015310 0.070460 -0.129723
v 0.171507 0.070460 -0.129723
v 0.171507 0.070460 0.313245
v 0.015310 0.200417 0.061057
v 0.015310 0.200417 -0.091856
v 0.150580 0.200417 -0.091856
v 0.150580 0.200417 0.061057
vn -1.0000 -0.0000 -0.0000
vn -0.0000 0.0031 -1.0000
vn 0.9967 -0.0814 -0.0000
vn -0.0000 0.1043 0.9945
vn -0.0000 -1.0000 -0.0000
vn -0.0000 1.0000 -0.0000
vn -0.0000 -0.0000 1.0000
vn 0.9741 0.2260 -0.0000
vn -0.0000 0.3343 -0.9425
vn -0.0000 0.8889 0.4581
vn 0.9873 0.1590 -0.0000
vn -0.0000 0.2797 -0.9601
vt 0.283264 0.604003
vt 0.284968 0.664984
vt 0.305515 0.664984
vt 0.305566 0.604003
vt 0.133029 0.621035
vt 0.133029 0.686111
vt 0.171054 0.686111
vt 0.168657 0.621035
vt 0.170011 0.620921
vt 0.172583 0.685698
vt 0.131766 0.685698
vt 0.131766 0.620921
vt 0.314539 0.496341
vt 0.246484 0.496341
vt 0.180301 0.506559
vt 0.175927 0.545341
vt 0.131766 0.545341
vt 0.131766 0.506559
vt 0.311089 0.532851
vt 0.246484 0.532851
vt 0.133029 0.506145
vt 0.133029 0.545107
vt 0.174169 0.545107
vt 0.178244 0.506145
s 0
usemtl Body
f 13/1/1 2/2/1 4/3/1 14/4/1
f 14/5/2 4/6/2 8/7/2 15/8/2
f 15/4/3 8/3/3 6/2/3 16/1/3
f 16/9/4 6/10/4 2/11/4 13/12/4
f 3/13/5 7/13/5 5/14/5 1/14/5
f 8/3/6 4/3/6 2/2/6 6/2/6
f 5/15/7 12/16/7 9/17/7 1/18/7
f 7/13/8 11/19/8 12/20/8 5/14/8
f 3/21/9 10/22/9 11/23/9 7/24/9
f 1/14/1 9/20/1 10/19/1 3/13/1
f 12/16/10 16/9/10 13/12/10 9/17/10
f 11/19/11 15/4/11 16/1/11 12/20/11
f 10/22/12 14/5/12 15/8/12 11/23/12
f 9/20/1 13/1/1 14/4/1 10/19/1
o Cylinder
v 0.120396 0.305353 -0.077794
v 0.138732 0.991823 -0.059798
v 0.137847 0.305353 -0.011690
v 0.160774 0.991823 0.028752
v 0.080547 0.305353 0.035374
v 0.083649 0.991823 0.093051
v 0.027682 0.305353 -0.001642
v 0.013940 0.991823 0.044241
v 0.052311 0.305353 -0.071583
v 0.047984 0.991823 -0.050225
v 0.139230 0.604095 -0.069606
v 0.149537 0.604095 0.034294
v 0.095034 0.604095 0.073240
v 0.035899 0.604095 0.031834
v 0.034241 0.604095 -0.061397
v 0.139154 0.663124 -0.068113
v 0.151248 0.663125 0.033450
v 0.093300 0.663125 0.076257
v 0.032556 0.663125 0.033723
v 0.036333 0.663124 -0.059696
v 0.150393 0.633610 0.033872
v 0.094167 0.633610 0.074748
v 0.034227 0.633610 0.032778
v 0.035287 0.633610 -0.060546
v 0.139193 0.633610 -0.068859
vn 0.9842 -0.0127 -0.1767
vn 0.6213 -0.0143 0.7835
vn -0.5726 -0.0586 0.8177
vn -0.9803 -0.0044 -0.1973
vn -0.0925 0.0285 -0.9953
vn -0.0830 0.0307 -0.9961
vn -0.9902 -0.0061 -0.1394
vn -0.5719 -0.0758 0.8168
vn 0.6040 -0.1367 0.7852
vn 0.9863 -0.0358 -0.1610
vn -0.0806 0.0283 -0.9963
vn -0.9996 -0.0098 -0.0259
vn 0.5911 -0.0147 0.8065
vn 0.9935 -0.0131 -0.1133
vn 0.9945 -0.0132 -0.1035
vn 0.5847 -0.0148 0.8111
vn -0.9999 -0.0107 0.0032
vn -0.0788 0.0283 -0.9965
vt 0.054401 0.803327
vt 0.054443 0.869001
vt 0.052241 0.869001
vt 0.053193 0.803327
vt 0.095600 0.622965
vt 0.102144 0.996574
vt 0.049166 0.996574
vt 0.055796 0.622965
vt 0.001283 0.996574
vt 0.014070 0.622965
vt 0.065050 0.803327
vt 0.066910 0.869001
vt 0.063509 0.869001
vt 0.064673 0.803327
vt 0.063076 0.731844
vt 0.064882 0.791533
vt 0.054393 0.791533
vt 0.056275 0.731844
vt 0.065537 0.731844
vt 0.064716 0.791533
vt 0.047035 0.216310
vt 0.056986 0.555871
vt 0.016366 0.555871
vt 0.010722 0.216310
vt 0.086395 0.216310
vt 0.094425 0.555871
vt 0.053364 0.791533
vt 0.054531 0.731844
vt 0.064777 0.797430
vt 0.054397 0.797430
vt 0.064883 0.797430
vt 0.056391 0.589418
vt 0.015218 0.589418
vt 0.095013 0.589418
vt 0.053278 0.797430
s 0
usemtl Body
f 32/25/13 18/26/13 20/27/13 33/28/13
f 33/29/14 20/30/14 22/31/14 34/32/14
f 34/32/15 22/31/15 24/33/15 35/34/15
f 35/35/16 24/36/16 26/37/16 36/38/16
f 36/38/17 26/37/17 18/26/17 32/25/17
f 25/39/18 31/40/18 27/41/18 17/42/18
f 23/43/19 30/44/19 31/40/19 25/39/19
f 21/45/20 29/46/20 30/47/20 23/48/20
f 19/49/21 28/50/21 29/46/21 21/45/21
f 17/42/22 27/41/22 28/51/22 19/52/22
f 40/53/23 36/38/23 32/25/23 41/54/23
f 39/55/24 35/35/24 36/38/24 40/53/24
f 38/56/15 34/32/15 35/34/15 39/57/15
f 37/58/25 33/29/25 34/32/25 38/56/25
f 41/54/26 32/25/26 33/28/26 37/59/26
f 27/41/27 41/54/27 37/59/27 28/51/27
f 28/50/28 37/58/28 38/56/28 29/46/28
f 29/46/15 38/56/15 39/57/15 30/47/15
f 30/44/29 39/55/29 40/53/29 31/40/29
f 31/40/30 40/53/30 41/54/30 27/41/30
o Cube.001
v 0.127122 1.161188 -0.068591
v 0.213532 0.966850 -0.089818
v 0.127122 1.161188 0.146955
v 0.213532 0.966850 0.157812
v -0.116076 1.161188 -0.068591
v -0.202487 0.966850 -0.089818
v -0.116076 1.161188 0.146955
v -0.202487 0.966850 0.157812
v 0.196243 1.069558 -0.095368
v 0.196243 1.069558 0.166053
v -0.185197 1.069558 0.166053
v -0.185197 1.069558 -0.095368
v 0.210950 0.982187 -0.099793
v 0.210950 0.982187 0.167553
v -0.199905 0.982187 0.167553
v -0.199905 0.982187 -0.099793
vn 0.9861 0.1660 -0.0000
vn -0.0000 -0.5362 0.8441
vn -0.9861 0.1660 -0.0000
vn -0.0000 -0.5452 -0.8383
vn -0.0000 1.0000 -0.0000
vn -0.0000 -1.0000 -0.0000
vn -0.0000 0.2805 -0.9599
vn -0.7983 0.6022 -0.0000
vn -0.0000 0.2040 0.9790
vn 0.7983 0.6022 -0.0000
vn -0.0000 0.0506 -0.9987
vn -0.0000 0.0172 0.9999
vt 0.472685 0.736627
vt 0.293997 0.736627
vt 0.300508 0.716126
vt 0.466017 0.716126
vt 0.537125 0.734896
vt 0.131670 0.734896
vt 0.129122 0.717229
vt 0.539673 0.717229
vt 0.531996 0.736201
vt 0.153600 0.736201
vt 0.151222 0.717364
vt 0.534373 0.717364
vt 0.026950 0.399416
vt 0.065793 0.399416
vt 0.065793 0.244044
vt 0.026950 0.244044
vt 0.046821 0.757865
vt 0.081181 0.770185
vt 0.070832 0.885633
vt 0.036473 0.873313
vt 0.454790 0.956061
vt 0.230806 0.956061
vt 0.167146 0.843516
vt 0.518450 0.843516
vt 0.307764 0.975906
vt 0.451830 0.975906
vt 0.469727 0.853421
vt 0.295000 0.853421
vt 0.454399 0.941105
vt 0.214397 0.941105
vt 0.146184 0.835548
vt 0.522611 0.835548
s 0
usemtl Body
f 54/60/31 55/61/31 45/62/31 43/63/31
f 55/64/32 56/65/32 49/66/32 45/67/32
f 56/61/33 57/60/33 47/63/33 49/62/33
f 57/68/34 54/69/34 43/70/34 47/71/34
f 44/72/35 42/73/35 46/74/35 48/75/35
f 49/76/36 47/77/36 43/78/36 45/79/36
f 46/80/37 42/81/37 50/82/37 53/83/37
f 48/84/38 46/85/38 53/86/38 52/87/38
f 44/88/39 48/89/39 52/90/39 51/91/39
f 42/85/40 44/84/40 51/87/40 50/86/40
f 53/83/41 50/82/41 54/69/41 57/68/41
f 52/87/33 53/86/33 57/60/33 56/61/33
f 51/91/42 52/90/42 56/65/42 55/64/42
f 50/86/31 51/87/31 55/61/31 54/60/31
o Cylinder.001
v -0.114147 0.305353 -0.077794
v -0.132483 0.991823 -0.059798
v -0.131597 0.305353 -0.011690
v -0.154524 0.991823 0.028751
v -0.074297 0.305353 0.035374
v -0.077399 0.991823 0.093051
v -0.021433 0.305353 -0.001642
v -0.007691 0.991823 0.044241
v -0.046061 0.305353 -0.071583
v -0.041734 0.991823 -0.050225
v -0.132981 0.604095 -0.069606
v -0.143288 0.604095 0.034294
v -0.088784 0.604095 0.073240
v -0.029649 0.604095 0.031834
v -0.027991 0.604095 -0.061397
v -0.132899 0.667402 -0.068005
v -0.145122 0.667402 0.033389
v -0.086925 0.667402 0.076475
v -0.026064 0.667402 0.033860
v -0.030235 0.667402 -0.059573
v -0.144205 0.635749 0.033841
v -0.087855 0.635749 0.074858
v -0.027857 0.635749 0.032847
v -0.029113 0.635749 -0.060485
v -0.132940 0.635749 -0.068805
vn -0.9840 -0.0127 -0.1775
vn -0.6215 -0.0143 0.7832
vn 0.5726 -0.0586 0.8177
vn 0.9799 -0.0043 -0.1993
vn 0.0927 0.0285 -0.9953
vn 0.0830 0.0307 -0.9961
vn 0.9902 -0.0061 -0.1394
vn 0.5719 -0.0758 0.8168
vn -0.6040 -0.1367 0.7852
vn -0.9863 -0.0358 -0.1610
vn 0.0808 0.0283 -0.9963
vn 0.9995 -0.0097 -0.0290
vn -0.5918 -0.0147 0.8060
vn -0.9934 -0.0131 -0.1143
vn -0.9945 -0.0132 -0.1039
vn -0.5850 -0.0148 0.8109
vn 0.9999 -0.0107 0.0022
vn 0.0789 0.0283 -0.9965
vt 0.063147 0.820445
vt 0.065251 0.820445
vt 0.066869 0.932124
vt 0.063076 0.932124
vt 0.011661 0.620311
vt 0.050914 0.620311
vt 0.057339 0.988501
vt 0.005319 0.988501
vt 0.091964 0.620311
vt 0.104357 0.988501
vt 0.044759 0.820445
vt 0.045477 0.820445
vt 0.047456 0.932124
vt 0.041596 0.932124
vt 0.048201 0.695812
vt 0.059920 0.695812
vt 0.063161 0.798652
vt 0.045090 0.798652
vt 0.043962 0.695812
vt 0.045376 0.798652
vt 0.059431 0.209416
vt 0.095088 0.209416
vt 0.089546 0.548463
vt 0.049660 0.548463
vt 0.020783 0.209416
vt 0.012898 0.548463
vt 0.062923 0.695812
vt 0.064935 0.798652
vt 0.045284 0.809548
vt 0.063154 0.809548
vt 0.045067 0.809548
vt 0.050287 0.584387
vt 0.090755 0.584387
vt 0.012279 0.584387
vt 0.065093 0.809548
s 0
usemtl Body
f 73/92/43 74/93/43 61/94/43 59/95/43
f 74/96/44 75/97/44 63/98/44 61/99/44
f 75/97/45 76/100/45 65/101/45 63/98/45
f 76/102/46 77/103/46 67/104/46 65/105/46
f 77/103/47 73/92/47 59/95/47 67/104/47
f 66/106/48 58/107/48 68/108/48 72/109/48
f 64/110/49 66/106/49 72/109/49 71/111/49
f 62/112/50 64/113/50 71/114/50 70/115/50
f 60/116/51 62/112/51 70/115/51 69/117/51
f 58/107/52 60/118/52 69/119/52 68/108/52
f 81/120/53 82/121/53 73/92/53 77/103/53
f 80/122/54 81/120/54 77/103/54 76/102/54
f 79/123/45 80/124/45 76/100/45 75/97/45
f 78/125/55 79/123/55 75/97/55 74/96/55
f 82/121/56 78/126/56 74/93/56 73/92/56
f 68/108/57 69/119/57 78/126/57 82/121/57
f 69/117/58 70/115/58 79/123/58 78/125/58
f 70/115/45 71/114/45 80/124/45 79/123/45
f 71/111/59 72/109/59 81/120/59 80/122/59
f 72/109/60 68/108/60 82/121/60 81/120/60
o Cube.004
v -0.155474 1.158832 0.182533
v -0.097335 1.578815 0.041680
v -0.155474 1.158832 -0.089561
v -0.097335 1.578815 -0.089561
v 0.156458 1.158832 0.182533
v 0.098319 1.578815 0.041680
v 0.156458 1.158832 -0.089561
v 0.098319 1.578815 -0.089561
v -0.133587 1.232240 0.134490
v -0.133587 1.232240 -0.067286
v 0.134571 1.232240 -0.067286
v 0.134571 1.232240 0.134490
v -0.122614 1.309209 0.171614
v -0.122614 1.309209 -0.089561
v 0.123598 1.309209 -0.089561
v 0.123598 1.309209 0.171614
v -0.139471 1.513942 0.111415
v -0.139471 1.513942 -0.080826
v 0.140454 1.513942 -0.080826
v 0.140454 1.513942 0.111415
v -0.127706 1.367547 -0.089561
v 0.128689 1.367547 -0.089561
v 0.128689 1.367547 0.183942
v -0.127706 1.367547 0.183942
v -0.122614 1.302611 -0.089561
v 0.123598 1.302611 -0.089561
v 0.123598 1.302611 0.155268
v -0.122614 1.302611 0.155268
v -0.155474 1.134811 0.046486
v -0.097335 1.578815 -0.023940
v 0.156458 1.134811 0.046486
v 0.098319 1.578815 -0.023940
v 0.134571 1.232240 0.033602
v -0.133587 1.232240 0.033602
v 0.123598 1.309209 0.041027
v -0.122614 1.309209 0.041027
v 0.140454 1.513942 0.015295
v -0.139471 1.513942 0.015295
v -0.127706 1.367547 0.047190
v 0.128689 1.367547 0.047190
v -0.122614 1.302611 0.032854
v 0.123598 1.302611 0.032854
v -0.101928 1.534437 0.089383
v -0.101928 1.534437 -0.083585
v 0.102912 1.534437 -0.083585
v 0.102912 1.534437 0.089383
v 0.102912 1.534437 0.002899
v -0.101928 1.534437 0.002899
v 0.000492 1.158832 -0.089561
v 0.000492 1.578510 -0.089561
v 0.000492 1.158832 0.182533
v 0.000492 1.526402 0.041680
v 0.000492 1.232240 0.134490
v 0.000492 1.232240 -0.067286
v 0.000492 1.309209 0.171614
v 0.000492 1.309209 -0.089561
v 0.000492 1.513942 0.111415
v 0.000492 1.513942 -0.080825
v 0.000492 1.367547 -0.089561
v 0.000492 1.367547 0.183942
v 0.000492 1.302611 -0.089561
v 0.000492 1.302611 0.155268
v 0.000492 1.134811 0.046486
v 0.000492 1.518592 0.089383
v 0.000492 1.518592 -0.083585
v -0.123487 1.557883 0.083651
v -0.123487 1.557883 -0.104693
v 0.124470 1.557883 -0.104693
v 0.124470 1.557883 0.083651
v 0.124470 1.557883 -0.010521
v -0.123487 1.557883 -0.010521
v 0.000492 1.522868 0.083651
v 0.000492 1.547884 -0.104693
vn -0.6249 0.7807 -0.0000
vn -0.0231 0.4974 -0.8672
vn 0.6249 0.7807 -0.0000
vn 0.3422 0.8681 0.3596
vn -0.0000 -0.9848 0.1739
vn -0.0000 0.5476 0.8367
vn 0.9705 0.2400 -0.0243
vn -0.0000 0.2904 -0.9569
vn -0.9687 0.2468 0.0250
vn -0.0000 -0.9273 0.3743
vn 1.0000 -0.0000 -0.0000
vn -0.0000 -0.0000 -1.0000
vn -1.0000 -0.0000 -0.0000
vn -0.0000 0.4439 0.8961
vn 0.9968 -0.0801 -0.0000
vn -0.0000 0.0596 -0.9982
vn -0.9968 -0.0801 -0.0000
vn -0.9962 -0.0869 -0.0000
vn 0.9962 -0.0869 -0.0000
vn -0.0000 -0.2067 0.9784
vn -0.9881 0.1541 -0.0000
vn -0.0000 -0.3018 -0.9534
vn 0.9881 0.1541 -0.0000
vn -0.0000 -0.2832 0.9591
vn -0.9705 0.2400 -0.0243
vn 0.9687 0.2468 0.0250
vn -0.0000 -0.9848 -0.1739
vn -0.4792 0.8777 -0.0000
vn 0.4792 0.8777 -0.0000
vn 0.0553 0.8462 0.5300
vn 0.0128 -0.1961 -0.9805
vn -0.0128 -0.1961 -0.9805
vn -0.0553 0.8462 0.5300
vn -0.3422 0.8681 0.3596
vn 0.0231 0.4974 -0.8672
vn -0.0732 -0.6413 -0.7638
vn -0.1001 0.4457 0.8896
vn -0.7361 -0.6769 -0.0000
vn 0.7361 -0.6769 -0.0000
vn 0.1001 0.4457 0.8896
vn 0.0732 -0.6413 -0.7638
vt 0.636945 0.590797
vt 0.638541 0.592749
vt 0.640177 0.973840
vt 0.640177 1.000144
vt 0.681418 1.000406
vt 0.692442 0.982428
vt 0.652893 0.578960
vt 0.651126 0.583409
vt 0.640177 0.952353
vt 0.640177 0.955389
vt 0.598936 1.000406
vt 0.587911 0.982428
vt 0.640177 0.619052
vt 0.705927 0.619052
vt 0.705927 0.639684
vt 0.640177 0.639684
vt 0.640177 0.702734
vt 0.583653 0.702734
vt 0.574426 0.639684
vt 0.656630 0.512584
vt 0.655247 0.529613
vt 0.656644 0.516552
vt 0.646805 0.524320
vt 0.646746 0.536218
vt 0.636389 0.526738
vt 0.637828 0.541806
vt 0.636398 0.530716
vt 0.640177 0.763175
vt 0.640177 0.768842
vt 0.588279 0.768842
vt 0.588279 0.763175
vt 0.654389 0.541256
vt 0.654366 0.542276
vt 0.646557 0.547275
vt 0.646532 0.548294
vt 0.638374 0.552435
vt 0.638349 0.553452
vt 0.640177 0.818948
vt 0.640177 0.944687
vt 0.581173 0.944687
vt 0.586133 0.818948
vt 0.654432 0.550910
vt 0.654170 0.571657
vt 0.646269 0.557176
vt 0.645361 0.578809
vt 0.637727 0.562509
vt 0.636151 0.584969
vt 0.646794 0.520346
vt 0.638539 0.586462
vt 0.651708 0.576669
vt 0.640177 0.948681
vt 0.597000 0.962290
vt 0.645333 0.579500
vt 0.699181 0.944687
vt 0.683354 0.962290
vt 0.696700 0.702734
vt 0.692075 0.763175
vt 0.692075 0.768842
vt 0.694221 0.818948
vt 0.574426 0.619052
s 0
usemtl Body
f 153/127/61 112/128/61 86/128/61 149/127/61
f 155/129/62 132/130/62 90/131/62 150/132/62
f 152/133/63 114/134/63 88/134/63 151/133/63
f 154/135/64 134/136/64 84/137/64 148/138/64
f 145/139/65 113/140/65 87/141/65 133/142/65
f 133/142/66 135/143/66 91/144/66 83/145/66
f 113/146/67 115/147/67 94/147/67 87/148/67
f 131/149/68 136/150/68 93/147/68 89/148/68
f 111/151/69 116/152/69 92/152/69 85/153/69
f 144/154/70 137/155/70 95/156/70 110/157/70
f 124/158/71 117/159/71 98/159/71 109/158/71
f 143/160/72 138/161/72 97/159/72 108/158/72
f 123/162/73 118/163/73 96/163/73 107/162/73
f 142/164/74 139/165/74 99/166/74 106/167/74
f 122/168/75 119/169/75 102/169/75 105/168/75
f 141/170/76 140/171/76 101/169/76 104/168/76
f 121/172/77 120/173/77 100/173/77 103/172/77
f 118/163/78 121/172/78 103/172/78 96/163/78
f 138/161/72 141/170/72 104/168/72 97/159/72
f 117/159/79 122/168/79 105/168/79 98/159/79
f 137/155/80 142/164/80 106/167/80 95/156/80
f 116/152/81 123/162/81 107/162/81 92/152/81
f 136/150/82 143/160/82 108/158/82 93/147/82
f 115/147/83 124/158/83 109/158/83 94/147/83
f 135/143/84 144/154/84 110/157/84 91/144/84
f 93/147/83 108/158/83 124/158/83 115/147/83
f 91/152/81 110/162/81 123/162/81 116/152/81
f 97/159/79 104/168/79 122/168/79 117/159/79
f 95/163/78 106/172/78 121/172/78 118/163/78
f 106/172/77 99/173/77 120/173/77 121/172/77
f 104/168/75 101/169/75 119/169/75 122/168/75
f 110/162/73 95/163/73 118/163/73 123/162/73
f 108/158/71 97/159/71 117/159/71 124/158/71
f 83/153/85 91/152/85 116/152/85 111/151/85
f 89/148/86 93/147/86 115/147/86 113/146/86
f 131/149/87 89/148/87 113/146/87 145/174/87
f 150/133/63 90/134/63 114/134/63 152/133/63
f 148/127/61 84/128/61 112/128/61 153/127/61
f 99/173/88 125/175/88 130/175/88 120/173/88
f 101/169/89 127/176/89 129/176/89 119/169/89
f 139/165/90 146/177/90 125/178/90 99/166/90
f 119/169/89 129/176/89 128/176/89 102/169/89
f 140/171/91 147/179/91 127/176/91 101/169/91
f 120/173/88 130/175/88 126/175/88 100/173/88
f 100/173/92 126/175/92 147/179/92 140/171/92
f 102/180/93 128/181/93 146/177/93 139/165/93
f 85/153/87 131/149/87 145/174/87 111/151/87
f 94/182/84 109/183/84 144/154/84 135/143/84
f 92/152/82 107/162/82 143/160/82 136/150/82
f 98/184/80 105/185/80 142/164/80 137/155/80
f 96/163/72 103/172/72 141/170/72 138/161/72
f 103/172/76 100/173/76 140/171/76 141/170/76
f 105/185/74 102/180/74 139/165/74 142/164/74
f 107/162/72 96/163/72 138/161/72 143/160/72
f 109/183/70 98/184/70 137/155/70 144/154/70
f 85/153/68 92/152/68 136/150/68 131/149/68
f 87/141/66 94/182/66 135/143/66 133/142/66
f 111/186/65 145/139/65 133/142/65 83/145/65
f 151/132/94 88/131/94 134/136/94 154/135/94
f 149/138/95 86/137/95 132/130/95 155/129/95
f 126/178/96 149/138/96 155/129/96 147/177/96
f 128/181/97 151/132/97 154/135/97 146/177/97
f 125/175/98 148/127/98 153/127/98 130/175/98
f 127/176/99 150/133/99 152/133/99 129/176/99
f 146/177/100 154/135/100 148/138/100 125/178/100
f 129/176/99 152/133/99 151/133/99 128/176/99
f 147/177/101 155/129/101 150/132/101 127/181/101
f 130/175/98 153/127/98 149/127/98 126/175/98
o Cube.006
v 0.471120 1.145797 0.072235
v 0.109472 1.495232 0.082561
v 0.471120 1.145797 -0.037573
v 0.109472 1.495232 -0.047898
v 0.558994 1.225320 0.072235
v 0.174541 1.561352 0.082561
v 0.558994 1.225320 -0.037573
v 0.174541 1.561352 -0.047898
v 0.437500 1.179732 0.072235
v 0.437499 1.179732 -0.037573
v 0.522857 1.257118 -0.037573
v 0.522857 1.257118 0.072235
v 0.385794 1.185919 0.082560
v 0.385794 1.185919 -0.047898
v 0.533467 1.300289 -0.047898
v 0.533467 1.300289 0.082560
v 0.263192 1.323158 0.089784
v 0.263192 1.323158 -0.055122
v 0.400299 1.428150 -0.055121
v 0.400299 1.428150 0.089785
v 0.243324 1.345398 0.082560
v 0.243324 1.345398 -0.047898
v 0.354923 1.437823 -0.047898
v 0.354923 1.437823 0.082561
v 0.281143 1.303064 -0.047898
v 0.402318 1.401314 -0.047897
v 0.402318 1.401314 0.082561
v 0.281143 1.303064 0.082560
vn -0.7458 -0.6662 -0.0000
vn -0.0000 -0.0000 -1.0000
vn 0.5650 0.8251 -0.0000
vn -0.0000 -0.0000 1.0000
vn 0.6710 -0.7415 -0.0000
vn -0.7128 0.7014 -0.0000
vn 0.6606 0.7507 -0.0000
vn -0.7104 -0.7038 -0.0000
vn 0.1945 -0.2364 0.9520
vn 0.9711 -0.2387 -0.0000
vn 0.1945 -0.2364 -0.9520
vn -0.1188 -0.9929 -0.0000
vn 0.1741 -0.2213 0.9595
vn 0.9972 0.0750 -0.0000
vn 0.1741 -0.2213 -0.9595
vn -0.1338 0.1686 0.9766
vn 0.2085 0.9780 -0.0000
vn -0.1338 0.1686 -0.9766
vn 0.6102 0.7922 -0.0000
vt 0.277459 0.065854
vt 0.242900 0.063387
vt 0.241306 0.095162
vt 0.277503 0.115735
vt 0.328942 0.082240
vt 0.328084 0.123001
vt 0.328084 0.123001
vt 0.333435 0.373996
vt 0.329083 0.463029
vt 0.222034 0.466301
vt 0.223321 0.377560
vt 0.333435 0.373996
vt 0.222034 0.466301
vt 0.319899 0.120431
vt 0.315352 0.132739
vt 0.314244 0.068479
vt 0.320751 0.080806
vt 0.320751 0.080806
vt 0.287550 0.120249
vt 0.283776 0.125619
vt 0.282589 0.066220
vt 0.287224 0.066551
vt 0.282589 0.066220
s 0
usemtl Body
f 176/187/102 157/188/102 159/188/102 177/187/102
f 177/187/103 159/188/103 163/189/103 178/190/103
f 178/190/104 163/189/104 161/189/104 179/190/104
f 179/190/105 161/189/105 157/188/105 176/187/105
f 158/191/106 162/192/106 160/193/106 156/191/106
f 163/189/107 159/188/107 157/188/107 161/189/107
f 160/194/105 167/195/105 164/196/105 156/197/105
f 162/198/108 166/195/108 167/195/108 160/194/108
f 158/197/103 165/199/103 166/195/103 162/198/103
f 156/197/109 164/196/109 165/199/109 158/197/109
f 167/200/110 171/201/110 168/202/110 164/203/110
f 166/200/111 170/201/111 171/201/111 167/200/111
f 165/204/112 169/202/112 170/201/112 166/200/112
f 164/203/113 168/202/113 169/202/113 165/204/113
f 182/205/114 175/206/114 172/207/114 183/208/114
f 181/205/115 174/206/115 175/206/115 182/205/115
f 180/208/116 173/209/116 174/206/116 181/205/116
f 183/208/102 172/207/102 173/209/102 180/208/102
f 175/206/117 179/190/117 176/187/117 172/207/117
f 174/206/118 178/190/118 179/190/118 175/206/118
f 173/209/119 177/187/119 178/190/119 174/206/119
f 172/207/102 176/187/102 177/187/102 173/209/102
f 168/202/102 183/208/102 180/208/102 169/202/102
f 169/202/103 180/208/103 181/205/103 170/201/103
f 170/201/120 181/205/120 182/205/120 171/201/120
f 171/201/105 182/205/105 183/208/105 168/202/105
o Cube.007
v 0.565505 1.021052 0.046431
v 0.561033 1.033432 0.058718
v 0.547911 1.032383 0.046431
v 0.470200 1.222977 0.058718
v 0.454042 1.245291 0.046431
v 0.448464 1.239904 0.046431
v 0.565505 1.021052 -0.008751
v 0.547911 1.032383 -0.008751
v 0.561033 1.033432 -0.021038
v 0.454042 1.245291 -0.008751
v 0.470200 1.222977 -0.021038
v 0.448464 1.239904 -0.008751
v 0.630200 1.019727 0.046431
v 0.647656 1.030620 0.046431
v 0.634716 1.031923 0.058718
v 0.679133 1.127596 0.046431
v 0.673943 1.116444 0.058718
v 0.684849 1.110757 0.046431
v 0.630200 1.019727 -0.008751
v 0.634716 1.031923 -0.021038
v 0.647656 1.030620 -0.008751
v 0.679133 1.127595 -0.008751
v 0.684849 1.110757 -0.008751
v 0.673943 1.116444 -0.021038
vn -0.4540 -0.7049 0.5450
vn -0.2853 0.2955 0.9118
vn -0.4540 -0.7049 -0.5450
vn -0.2853 0.2954 -0.9118
vn 0.4444 -0.7121 0.5436
vn 0.7788 0.2643 0.5689
vn 0.4444 -0.7121 -0.5436
vn 0.7788 0.2643 -0.5689
vn -0.5415 -0.8407 -0.0000
vn -0.6377 -0.3056 0.7071
vn -0.6947 0.7193 -0.0000
vn -0.6377 -0.3056 -0.7071
vn -0.0145 -0.7070 -0.7071
vn 0.3276 0.6266 -0.7071
vn 0.6414 -0.2977 -0.7071
vn 0.5294 -0.8484 -0.0000
vn 0.9469 0.3214 -0.0000
vn 0.6414 -0.2977 0.7071
vn -0.0145 -0.7070 0.7071
vn 0.3276 0.6266 0.7071
vn -0.0205 -0.9998 -0.0000
vn -0.9018 -0.4322 -0.0000
vn -0.0000 -0.0000 1.0000
vn 0.4634 0.8862 -0.0000
vn -0.0000 -0.0000 -1.0000
vn 0.9071 -0.4210 -0.0000
vt 0.497422 0.546873
vt 0.496781 0.550425
vt 0.494899 0.550124
vt 0.483752 0.604799
vt 0.481435 0.611201
vt 0.480634 0.609655
vt 0.506702 0.546493
vt 0.509205 0.549618
vt 0.507349 0.549992
vt 0.513720 0.577437
vt 0.512976 0.574239
vt 0.514540 0.572607
s 0
usemtl Body
f 184/210/121 185/211/121 186/212/121
f 187/213/122 188/214/122 189/215/122
f 190/210/123 191/212/123 192/211/123
f 193/214/124 194/213/124 195/215/124
f 196/216/125 197/217/125 198/218/125
f 199/219/126 200/220/126 201/221/126
f 202/216/127 203/218/127 204/217/127
f 205/219/128 206/221/128 207/220/128
f 190/210/129 184/210/129 186/212/129 191/212/129
f 185/211/130 187/213/130 189/215/130 186/212/130
f 188/214/131 193/214/131 195/215/131 189/215/131
f 194/213/132 192/211/132 191/212/132 195/215/132
f 202/216/133 190/210/133 192/211/133 203/218/133
f 193/214/134 205/219/134 207/220/134 194/213/134
f 206/221/135 204/217/135 203/218/135 207/220/135
f 196/216/136 202/216/136 204/217/136 197/217/136
f 205/219/137 199/219/137 201/221/137 206/221/137
f 200/220/138 198/218/138 197/217/138 201/221/138
f 184/210/139 196/216/139 198/218/139 185/211/139
f 199/219/140 188/214/140 187/213/140 200/220/140
f 190/210/141 202/216/141 196/216/141 184/210/141
f 186/212/142 189/215/142 195/215/142 191/212/142
f 198/218/143 200/220/143 187/213/143 185/211/143
f 205/219/144 193/214/144 188/214/144 199/219/144
f 192/211/145 194/213/145 207/220/145 203/218/145
f 204/217/146 206/221/146 201/221/146 197/217/146
o Cylinder.002
v 0.003056 1.472024 0.008852
v 0.003056 1.596597 0.008852
v 0.030597 1.472024 0.056554
v 0.030597 1.596597 0.056554
v -0.024486 1.472024 0.056554
v -0.024486 1.596597 0.056554
vn 0.8660 -0.0000 -0.5000
vn -0.0000 -0.0000 1.0000
vn -0.8660 -0.0000 -0.5000
vt 0.951127 0.964663
vt 0.901296 0.964663
vt 0.901296 0.898222
vt 0.951127 0.898222
vt 0.901296 0.831782
vt 0.951127 0.831782
vt 0.901296 0.765341
vt 0.951127 0.765341
s 0
usemtl Body
f 208/222/147 209/223/147 211/224/147 210/225/147
f 210/225/148 211/224/148 213/226/148 212/227/148
f 212/227/149 213/226/149 209/228/149 208/229/149
o Plane
v 0.075381 1.627899 0.028453
v 0.127440 1.655314 0.132546
v 0.001379 1.574833 0.184232
v 0.154737 1.889294 0.132546
v 0.001379 1.577569 0.028453
v 0.001379 1.896442 0.193605
v 0.001379 1.654610 0.217473
v 0.001379 1.685441 0.201270
v 0.010273 1.661811 0.223903
v 0.001379 1.664497 0.227911
v 0.157959 1.782835 0.118072
v 0.001379 1.779712 0.208773
v 0.086771 1.617166 0.129667
v 0.001379 1.615086 0.196295
v -0.072623 1.627899 0.028453
v -0.124682 1.655314 0.132546
v -0.151979 1.889294 0.132546
v -0.007515 1.661811 0.223903
v -0.155201 1.782835 0.118072
v -0.084014 1.617166 0.129667
vn 0.6023 -0.2292 0.7647
vn 0.3227 -0.8203 0.4722
vn 0.4398 0.0091 0.8980
vn 0.0903 -0.7230 0.6849
vn 0.4586 0.6986 0.5492
vn 0.4643 0.6975 0.5458
vn 0.4880 -0.0397 0.8719
vn 0.4842 -0.8724 -0.0672
vn 0.6819 -0.7154 -0.1526
vn 0.5129 -0.4874 0.7067
vn -0.6023 -0.2292 0.7647
vn -0.3227 -0.8203 0.4722
vn -0.4398 0.0091 0.8980
vn -0.0903 -0.7230 0.6849
vn -0.4586 0.6986 0.5492
vn -0.4643 0.6975 0.5458
vn -0.4880 -0.0397 0.8719
vn -0.4842 -0.8724 -0.0672
vn -0.6819 -0.7154 -0.1526
vn -0.5129 -0.4874 0.7067
vt 0.815510 0.481820
vt 0.867048 0.532919
vt 0.815510 0.530409
vt 0.815510 0.578118
vt 0.891593 0.578969
vt 0.820877 0.586810
vt 0.815510 0.729129
vt 0.910013 0.732898
vt 0.908069 0.868787
vt 0.815510 0.877415
vt 0.815510 0.590054
vt 0.815510 0.615335
vt 0.860173 0.545875
vt 0.815510 0.485122
vt 0.763971 0.532919
vt 0.810142 0.586810
vt 0.739426 0.578969
vt 0.722951 0.868787
vt 0.721006 0.732898
vt 0.770846 0.545875
s 0
usemtl Body
f 216/230/150 226/231/150 227/232/150
f 220/233/151 215/234/151 222/235/151
f 225/236/152 224/237/152 217/238/152 219/239/152
f 222/235/153 223/240/153 220/233/153
f 223/240/154 222/235/154 221/241/154
f 222/235/155 215/234/155 221/241/155
f 221/241/156 215/234/156 224/237/156 225/236/156
f 214/242/157 226/231/157 216/230/157 218/243/157
f 215/234/158 226/231/158 214/242/158
f 227/232/159 226/231/159 215/234/159 220/233/159
f 216/230/160 227/232/160 233/244/160
f 220/233/161 231/245/161 229/246/161
f 225/236/162 219/239/162 230/247/162 232/248/162
f 231/245/163 220/233/163 223/240/163
f 223/240/164 221/241/164 231/245/164
f 231/245/165 221/241/165 229/246/165
f 221/241/166 225/236/166 232/248/166 229/246/166
f 228/249/167 218/243/167 216/230/167 233/244/167
f 229/246/168 228/249/168 233/244/168
f 227/232/169 220/233/169 229/246/169 233/244/169
o Cube.008
v 0.090732 1.816651 0.262958
v 0.074444 1.992260 0.094857
v 0.237159 1.690780 -0.110869
v 0.074444 1.992260 0.049704
v 0.000046 1.690780 -0.158782
v 0.000046 1.928567 -0.047318
v 0.074658 1.837579 0.262958
v 0.000046 1.992260 0.140878
v 0.174898 1.821201 0.199416
v 0.074444 1.992260 0.056032
v 0.000046 1.992260 0.043361
v 0.174898 1.914586 -0.013775
v 0.174898 1.875157 0.185090
v 0.000046 1.874277 0.255375
v 0.000046 1.817407 -0.103429
v 0.174898 1.914586 0.072786
v 0.074444 1.992260 0.083822
v 0.000046 1.992260 0.106832
v 0.174898 1.721111 0.231187
v 0.201785 1.897146 0.148847
v 0.237159 1.693631 0.156866
v 0.074444 1.992260 0.055339
v 0.000046 1.985285 0.030207
v 0.174898 1.914586 0.058060
v 0.231903 1.733055 0.133440
v 0.000046 1.986936 0.037995
v 0.074444 1.992260 0.055168
v 0.000046 1.983558 0.026951
v 0.174898 1.914586 0.054413
v 0.164466 1.773347 -0.074990
v 0.174898 1.848405 0.220695
v 0.000046 1.791836 0.258842
v 0.000046 1.725046 -0.153578
v 0.205698 1.871886 0.130687
v 0.206471 1.816655 0.186497
v 0.208666 1.813555 0.129949
v 0.218797 1.831582 0.090548
v 0.251636 1.681735 -0.011370
v 0.074444 1.992260 0.052715
v 0.000046 1.958869 -0.002849
v 0.174898 1.914586 0.002290
v 0.224685 1.802149 -0.006907
v 0.164190 1.846950 -0.042907
v 0.174898 1.861781 0.202893
v 0.000046 1.833056 0.261800
v 0.000046 1.771227 -0.128503
v 0.192978 1.893236 0.101737
v 0.195638 1.856900 0.167672
v 0.208756 1.864071 0.094004
v 0.200362 1.873084 0.072481
v 0.194300 1.861351 -0.000833
v 0.040238 1.962975 0.005096
v 0.083342 1.826273 0.262958
v 0.128140 1.690780 -0.155394
v 0.040238 1.992260 0.116017
v 0.040238 1.992260 0.050206
v 0.094505 1.874752 0.217406
v 0.094505 1.869906 -0.054996
v 0.040238 1.992260 0.094402
v 0.040238 1.989053 0.043784
v 0.040238 1.988259 0.042194
v 0.082936 1.754363 -0.109528
v 0.094505 1.822396 0.238234
v 0.040238 1.976908 0.027168
v 0.088721 1.812134 -0.082262
v 0.094505 1.848574 0.229977
v -0.090640 1.816651 0.262958
v -0.074353 1.992260 0.094857
v -0.237067 1.690780 -0.110869
v -0.074353 1.992260 0.049704
v -0.074567 1.837579 0.262958
v -0.174807 1.821201 0.199416
v -0.074353 1.992260 0.056032
v -0.174807 1.914586 -0.013775
v -0.174807 1.875157 0.185090
v -0.174807 1.914586 0.072786
v -0.074353 1.992260 0.083822
v -0.174807 1.721111 0.231187
v -0.201693 1.897146 0.148847
v -0.237067 1.693631 0.156866
v -0.074353 1.992260 0.055339
v -0.174807 1.914586 0.058060
v -0.231811 1.733055 0.133440
v -0.074353 1.992260 0.055168
v -0.174807 1.914586 0.054413
v -0.164375 1.773347 -0.074990
v -0.174807 1.848405 0.220695
v -0.205606 1.871886 0.130687
v -0.206380 1.816655 0.186497
v -0.208575 1.813555 0.129949
v -0.218706 1.831582 0.090548
v -0.251544 1.681735 -0.011370
v -0.074353 1.992260 0.052715
v -0.174807 1.914586 0.002290
v -0.224593 1.802149 -0.006907
v -0.164099 1.846950 -0.042907
v -0.174807 1.861781 0.202893
v -0.192886 1.893236 0.101737
v -0.195547 1.856900 0.167672
v -0.208665 1.864071 0.094004
v -0.200271 1.873084 0.072481
v -0.194208 1.861351 -0.000833
v -0.040146 1.962975 0.005096
v -0.083250 1.826273 0.262958
v -0.128048 1.690780 -0.155394
v -0.040146 1.992260 0.116017
v -0.040146 1.992260 0.050206
v -0.094414 1.874752 0.217406
v -0.094414 1.869906 -0.054996
v -0.040146 1.992260 0.094402
v -0.040146 1.989053 0.043784
v -0.040146 1.988259 0.042194
v -0.082844 1.754363 -0.109528
v -0.094414 1.822396 0.238234
v -0.040146 1.976908 0.027168
v -0.088629 1.812134 -0.082262
v -0.094414 1.848574 0.229977
v 0.183562 1.863917 0.123575
v 0.179389 1.863917 -0.016603
v 0.000900 1.300642 -0.086401
v 0.183040 1.825443 -0.022175
v 0.183040 1.825443 -0.022175
v 0.203355 1.822074 0.123575
v 0.249901 1.647355 0.085656
v 0.000900 1.647355 -0.171251
v 0.267693 1.493708 -0.121460
v 0.267693 1.493708 0.033261
v 0.000900 1.493709 -0.016576
v 0.000900 1.493709 -0.121460
v 0.247542 1.274968 -0.086401
v 0.000305 1.822074 -0.050478
v 0.000900 1.408382 -0.056989
v 0.000900 1.408382 -0.124911
v 0.215876 1.371492 -0.086401
v 0.135140 1.863917 0.123575
v 0.173035 1.822074 0.123575
v 0.152719 1.825443 -0.022175
v 0.219758 1.583281 -0.171251
v 0.219758 1.647355 0.085656
v 0.235397 1.493709 0.033261
v 0.235397 1.493709 -0.121460
v 0.198599 1.259110 -0.086401
v 0.180055 1.493709 -0.016576
v 0.161366 1.408382 -0.056989
v 0.109625 1.863917 -0.023378
v 0.109093 1.822074 -0.050478
v 0.168108 1.647355 -0.171251
v 0.180056 1.493709 -0.121460
v 0.161366 1.408382 -0.124911
v 0.154173 1.387289 -0.086401
v 0.127884 1.493709 -0.016576
v 0.085572 1.863917 -0.023378
v 0.080425 1.822074 -0.050478
v 0.119415 1.647355 -0.171251
v 0.127884 1.493709 -0.121460
v 0.134571 1.294240 -0.086401
v 0.077188 1.493709 -0.016576
v 0.069230 1.408382 -0.056989
v 0.056310 1.626716 -0.200144
v 0.077189 1.493709 -0.121460
v 0.069230 1.408382 -0.124911
v 0.038521 1.408352 -0.086400
v 0.042512 1.493709 -0.016576
v 0.042512 1.493709 -0.121460
v 0.152719 1.825443 -0.022176
v 0.052570 1.822074 -0.050478
v 0.033515 1.822074 -0.050478
v 0.253442 1.616770 0.066095
v 0.000900 1.541429 -0.229037
v 0.222871 1.616770 0.066095
v 0.145794 1.541429 -0.229037
v 0.257016 1.593556 -0.127318
v 0.257016 1.585913 0.045836
v 0.000900 1.593556 -0.127318
v 0.226012 1.585913 0.045836
v 0.226012 1.593556 -0.127318
v 0.172886 1.593556 -0.127318
v 0.122802 1.593556 -0.127318
v 0.040846 1.593556 -0.127318
v 0.264357 1.522514 0.033261
v 0.000900 1.401969 -0.183206
v 0.232465 1.522514 0.033261
v 0.232465 1.401969 -0.183206
v 0.126296 1.401969 -0.183206
v 0.183040 1.825443 -0.000425
v 0.249901 1.647355 -0.129895
v 0.267693 1.493709 -0.087745
v 0.253442 1.616770 -0.121504
v 0.257016 1.585913 -0.113039
v 0.216301 1.599983 -0.079324
v -0.181763 1.863917 0.123575
v -0.177589 1.863917 -0.016603
v -0.181240 1.825443 -0.022176
v -0.181241 1.825443 -0.022176
v -0.201556 1.822074 0.123575
v -0.248101 1.647355 0.085656
v -0.265894 1.493708 -0.121460
v -0.265894 1.493708 0.033261
v -0.245743 1.274968 -0.086400
v 0.001494 1.822074 -0.050478
v -0.214077 1.371492 -0.086401
v -0.133340 1.863917 0.123575
v -0.171235 1.822074 0.123575
v -0.150920 1.825443 -0.022176
v -0.217959 1.583281 -0.171251
v -0.217959 1.647355 0.085656
v -0.233598 1.493708 0.033261
v -0.233598 1.493709 -0.121460
v -0.196800 1.259110 -0.086400
v -0.178256 1.493709 -0.016576
v -0.159567 1.408382 -0.056989
v -0.107826 1.863917 -0.023378
v -0.107293 1.822074 -0.050478
v -0.166309 1.647355 -0.171251
v -0.178256 1.493709 -0.121460
v -0.159567 1.408382 -0.124911
v -0.152374 1.387289 -0.086401
v -0.126085 1.493709 -0.016576
v -0.083773 1.863917 -0.023378
v -0.078626 1.822074 -0.050478
v -0.117616 1.647355 -0.171251
v -0.126085 1.493709 -0.121460
v -0.132772 1.294240 -0.086401
v -0.075389 1.493709 -0.016576
v -0.067431 1.408382 -0.056989
v -0.054511 1.626716 -0.200144
v -0.075389 1.493709 -0.121460
v -0.067431 1.408382 -0.124911
v -0.036722 1.408352 -0.086400
v -0.040713 1.493709 -0.016576
v -0.040713 1.493709 -0.121460
v -0.150920 1.825443 -0.022176
v -0.050770 1.822074 -0.050478
v -0.031716 1.822074 -0.050478
v -0.251643 1.616770 0.066095
v -0.221072 1.616770 0.066095
v -0.143994 1.541429 -0.229037
v -0.255216 1.593556 -0.127318
v -0.255216 1.585913 0.045836
v -0.224213 1.585913 0.045836
v -0.224213 1.593556 -0.127318
v -0.171086 1.593556 -0.127318
v -0.121003 1.593556 -0.127318
v -0.039047 1.593556 -0.127318
v -0.262558 1.522514 0.033261
v -0.230666 1.522514 0.033261
v -0.230666 1.401969 -0.183206
v -0.124497 1.401969 -0.183206
v -0.181240 1.825443 -0.000425
v -0.248101 1.647355 -0.129895
v -0.265894 1.493708 -0.087745
v -0.251643 1.616770 -0.121504
v -0.255216 1.585913 -0.113039
v -0.214502 1.599983 -0.079324
vn 0.1320 0.6569 -0.7423
vn 0.3387 0.7647 0.5483
vn -0.0000 1.0000 -0.0000
vn 0.3079 0.6805 0.6649
vn 0.0754 0.8846 -0.4602
vn 0.6117 0.7911 -0.0000
vn 0.8446 0.5275 -0.0917
vn 0.3156 0.2574 0.9133
vn 0.7561 0.3078 0.5776
vn 0.2744 0.3642 -0.8900
vn 0.9813 0.0449 -0.1872
vn 0.6098 0.7922 -0.0248
vn 0.8639 0.4910 -0.1123
vn 0.0718 0.8849 -0.4603
vn 0.1312 0.7726 -0.6212
vn 0.9057 0.4159 -0.0827
vn -1.0000 -0.0000 -0.0000
vn 0.9815 0.1869 0.0415
vn 0.9057 0.2754 0.3221
vn -0.3927 -0.4532 -0.8003
vn 0.2481 0.6176 -0.7463
vn 0.5499 0.0686 0.8324
vn -0.2630 0.7136 -0.6493
vn 0.8872 0.2164 0.4075
vn 0.7861 0.4665 -0.4054
vn 0.8514 0.1916 -0.4884
vn 0.0244 0.8325 -0.5534
vn 0.6552 0.3444 -0.6724
vn 0.8998 0.4239 -0.1031
vn 0.9490 0.2773 0.1501
vn 0.6842 0.5920 0.4260
vn 0.2816 0.3852 -0.8788
vn 0.8155 0.4296 0.3878
vn 0.2494 0.0759 0.9654
vn 0.9779 0.2059 0.0377
vn 0.0971 0.5476 0.8311
vn 0.2827 0.4188 -0.8630
vn -0.0722 0.8719 -0.4843
vn -0.1402 0.9689 0.2038
vn 0.1224 0.5031 -0.8555
vn 0.0692 0.8367 -0.5433
vn 0.0512 0.9105 -0.4104
vn 0.2339 0.4268 -0.8736
vn 0.2347 0.5920 0.7710
vn 0.0616 0.9099 -0.4102
vn 0.2942 0.7134 0.6359
vn 0.2629 0.5290 -0.8069
vn -0.8427 -0.5332 0.0741
vn -0.1320 0.6569 -0.7423
vn -0.3387 0.7647 0.5483
vn -0.3079 0.6805 0.6649
vn -0.0754 0.8846 -0.4602
vn -0.6117 0.7911 -0.0000
vn -0.8446 0.5275 -0.0917
vn -0.3156 0.2574 0.9133
vn -0.7561 0.3078 0.5776
vn -0.2744 0.3642 -0.8900
vn -0.9813 0.0449 -0.1872
vn -0.6098 0.7922 -0.0248
vn -0.8639 0.4910 -0.1123
vn -0.0718 0.8849 -0.4603
vn -0.1312 0.7726 -0.6212
vn -0.9057 0.4159 -0.0827
vn -0.9815 0.1869 0.0415
vn -0.9057 0.2754 0.3221
vn 0.3927 -0.4532 -0.8003
vn -0.2481 0.6176 -0.7463
vn -0.5499 0.0686 0.8324
vn 0.2630 0.7136 -0.6493
vn -0.8872 0.2164 0.4075
vn -0.7861 0.4665 -0.4054
vn -0.8514 0.1916 -0.4884
vn -0.0244 0.8325 -0.5534
vn -0.6552 0.3444 -0.6724
vn -0.8998 0.4239 -0.1031
vn -0.9490 0.2773 0.1501
vn -0.6842 0.5920 0.4260
vn -0.2816 0.3852 -0.8788
vn -0.8155 0.4296 0.3878
vn -0.2494 0.0759 0.9654
vn -0.9779 0.2059 0.0377
vn -0.0971 0.5476 0.8311
vn -0.2827 0.4188 -0.8630
vn 0.0722 0.8719 -0.4843
vn 0.1402 0.9689 0.2038
vn -0.1224 0.5031 -0.8555
vn -0.0692 0.8367 -0.5433
vn -0.0512 0.9105 -0.4104
vn -0.2339 0.4268 -0.8736
vn -0.2347 0.5920 0.7710
vn -0.0616 0.9099 -0.4102
vn -0.2942 0.7134 0.6359
vn -0.2629 0.5290 -0.8069
vn 0.8427 -0.5332 0.0741
vn -0.0000 0.1433 -0.9897
vn 0.9609 0.2632 -0.0857
vn 0.9934 0.1150 -0.0000
vn -0.0000 0.9737 -0.2277
vn 0.2964 -0.5230 0.7991
vn 0.9958 -0.0917 -0.0000
vn -0.2517 -0.1668 -0.9533
vn -0.0000 0.7427 0.6696
vn 0.6020 -0.2103 0.7703
vn 0.5371 -0.0826 -0.8394
vn 0.2663 -0.1929 -0.9444
vn -0.6119 -0.4055 0.6791
vn -0.0000 -0.5388 0.8424
vn -0.0000 -0.2121 0.9773
vn -0.0000 -0.0000 1.0000
vn 0.2761 0.2805 -0.9193
vn -0.0000 0.5436 -0.8393
vn -0.0000 0.4789 -0.8779
vn -0.4965 -0.1603 -0.8531
vn -0.8902 -0.3085 -0.3353
vn 0.4381 -0.0673 0.8964
vn -0.3255 -0.5392 0.7768
vn 0.3943 -0.0831 -0.9152
vn 0.2513 -0.1340 -0.9586
vn 0.2154 0.5085 -0.8337
vn -0.8565 -0.2968 0.4223
vn -0.2404 -0.4909 0.8374
vn -0.5036 -0.1231 -0.8551
vn -0.6530 -0.5496 -0.5211
vn 0.3119 -0.0657 0.9478
vn 0.1120 -0.4872 0.8661
vn 0.6939 -0.2424 -0.6781
vn 0.4304 -0.1741 -0.8857
vn -0.2691 0.4612 -0.8455
vn -0.5976 -0.5030 0.6244
vn -0.3577 -0.4889 0.7957
vn 0.9729 -0.0883 -0.2139
vn 0.6365 -0.7587 0.1388
vn -0.4455 -0.8953 -0.0009
vn -0.0000 -0.8899 0.4561
vn -0.6426 -0.5180 -0.5645
vn -0.0000 -0.5488 0.8359
vn -0.0000 0.2800 -0.9600
vn 0.7231 -0.6199 -0.3049
vn -0.0000 -0.1946 0.9809
vn 0.9250 -0.3740 -0.0676
vn -0.0000 -0.0586 -0.9983
vn -0.7208 -0.6088 0.3314
vn 0.8954 -0.4133 -0.1656
vn -0.8476 -0.5269 0.0635
vn 0.9235 0.3782 -0.0646
vn 0.9512 -0.2187 -0.2177
vn 0.8728 0.2577 0.4146
vn -0.5710 -0.7238 -0.3874
vn 0.9955 0.0945 -0.0000
vn -0.9970 -0.0367 0.0687
vn -0.0000 -0.3187 0.9478
vn -0.9609 0.2632 -0.0857
vn -0.9934 0.1150 -0.0000
vn -0.2964 -0.5230 0.7991
vn -0.9958 -0.0917 -0.0000
vn 0.2517 -0.1668 -0.9533
vn -0.6020 -0.2103 0.7703
vn -0.5371 -0.0826 -0.8394
vn -0.2663 -0.1929 -0.9444
vn 0.6119 -0.4055 0.6791
vn -0.2761 0.2805 -0.9193
vn 0.4965 -0.1603 -0.8531
vn 0.8902 -0.3085 -0.3353
vn -0.4381 -0.0673 0.8964
vn 0.3255 -0.5392 0.7768
vn -0.3943 -0.0831 -0.9152
vn -0.2513 -0.1340 -0.9586
vn -0.2154 0.5085 -0.8337
vn 0.8565 -0.2968 0.4223
vn 0.2404 -0.4909 0.8374
vn 0.5036 -0.1231 -0.8551
vn 0.6530 -0.5496 -0.5211
vn -0.3119 -0.0657 0.9478
vn -0.1120 -0.4872 0.8661
vn -0.6939 -0.2424 -0.6781
vn -0.4304 -0.1741 -0.8857
vn 0.2691 0.4612 -0.8455
vn 0.5976 -0.5030 0.6244
vn 0.3577 -0.4889 0.7957
vn -0.9729 -0.0883 -0.2139
vn -0.6365 -0.7587 0.1388
vn 0.4455 -0.8953 -0.0009
vn 0.6426 -0.5180 -0.5645
vn -0.7231 -0.6199 -0.3049
vn -0.9249 -0.3740 -0.0676
vn 0.7208 -0.6088 0.3314
vn -0.8954 -0.4133 -0.1656
vn 0.8476 -0.5269 0.0635
vn -0.9235 0.3782 -0.0646
vn -0.9512 -0.2187 -0.2177
vn -0.8728 0.2577 0.4146
vn 0.5710 -0.7238 -0.3874
vn -0.9955 0.0945 -0.0000
vn 0.9970 -0.0367 0.0687
vn 0.9756 0.2194 0.0083
vn 0.9403 0.3230 -0.1075
vn -0.1142 0.1309 -0.9848
vn 0.5935 0.3739 -0.7127
vn -0.0000 0.3430 -0.9393
vn 0.0099 0.4647 -0.8854
vn -0.0099 0.4644 -0.8856
vn -0.5931 0.3646 -0.7178
vn 0.1173 0.1358 -0.9838
vn -0.9807 0.1952 0.0120
vn -0.9503 0.2905 -0.1119
vt 0.576809 0.353875
vt 0.554820 0.429297
vt 0.568680 0.453029
vt 0.609384 0.390083
vt 0.620278 0.375950
vt 0.609384 0.358130
vt 0.554820 0.453029
vt 0.538534 0.453029
vt 0.576809 0.357802
vt 0.538534 0.357417
vt 0.554820 0.450430
vt 0.538534 0.447376
vt 0.623103 0.349146
vt 0.616709 0.372781
vt 0.576809 0.336588
vt 0.538534 0.324012
vt 0.617787 0.343335
vt 0.609384 0.347290
vt 0.574465 0.307057
vt 0.605045 0.335272
vt 0.619702 0.356450
vt 0.554820 0.449787
vt 0.538534 0.445977
vt 0.554820 0.440588
vt 0.538534 0.425970
vt 0.617245 0.346942
vt 0.538534 0.448714
vt 0.640477 0.201384
vt 0.629557 0.298966
vt 0.627171 0.322817
vt 0.632481 0.242972
vt 0.623066 0.308209
vt 0.634611 0.211024
vt 0.609384 0.314405
vt 0.621863 0.355479
vt 0.622177 0.310720
vt 0.609384 0.233293
vt 0.590437 0.208713
vt 0.572121 0.260240
vt 0.605157 0.275625
vt 0.634611 0.208713
vt 0.609384 0.336451
vt 0.575280 0.310718
vt 0.572285 0.318515
vt 0.576809 0.315373
vt 0.538534 0.290608
vt 0.568767 0.327677
vt 0.538534 0.401413
vt 0.538534 0.236482
vt 0.538534 0.273907
vt 0.538534 0.208713
vt 0.538534 0.311331
vt 0.500260 0.353875
vt 0.467685 0.390083
vt 0.508389 0.453029
vt 0.522249 0.429297
vt 0.456791 0.375950
vt 0.467685 0.358130
vt 0.522249 0.453029
vt 0.500260 0.357802
vt 0.522249 0.450430
vt 0.453966 0.349146
vt 0.460360 0.372781
vt 0.500260 0.336588
vt 0.459282 0.343335
vt 0.467685 0.347290
vt 0.502604 0.307057
vt 0.472024 0.335272
vt 0.457367 0.356450
vt 0.522249 0.449787
vt 0.522249 0.440588
vt 0.459824 0.346942
vt 0.436592 0.201384
vt 0.444587 0.242972
vt 0.449898 0.322817
vt 0.447512 0.298966
vt 0.442458 0.211024
vt 0.454003 0.308209
vt 0.467685 0.314405
vt 0.467685 0.233293
vt 0.454892 0.310720
vt 0.455206 0.355479
vt 0.486631 0.208713
vt 0.442458 0.208713
vt 0.471912 0.275625
vt 0.504948 0.260240
vt 0.501789 0.310718
vt 0.467685 0.336451
vt 0.504783 0.318515
vt 0.508302 0.327677
vt 0.500260 0.315373
vt 0.600396 0.317842
vt 0.611203 0.349021
vt 0.612682 0.317842
vt 0.612894 0.349021
vt 0.620914 0.315113
vt 0.641209 0.148736
vt 0.639774 0.173522
vt 0.696501 0.172893
vt 0.627560 0.121597
vt 0.674974 0.172893
vt 0.860765 0.200540
vt 0.862382 0.269712
vt 0.845521 0.269712
vt 0.845521 0.200565
vt 0.945459 0.092447
vt 0.953624 0.269712
vt 0.932628 0.170669
vt 0.940538 0.269712
vt 0.876433 0.269712
vt 0.605287 0.172893
vt 0.845521 0.113253
vt 0.925627 0.079597
vt 0.910541 0.200565
vt 0.918114 0.269712
vt 0.627560 0.173522
vt 0.628822 0.148736
vt 0.608628 0.315113
vt 0.593273 0.349021
vt 0.582719 0.315113
vt 0.582935 0.349021
vt 0.571104 0.315113
vt 0.573189 0.349021
vt 0.597590 0.087681
vt 0.586902 0.173522
vt 0.606632 0.173522
vt 0.907626 0.183471
vt 0.896974 0.269712
vt 0.899684 0.108066
vt 0.873208 0.200565
vt 0.561332 0.156797
vt 0.538880 0.087681
vt 0.538880 0.173522
vt 0.621473 0.172893
vt 0.654680 0.172893
vt 0.642657 0.123730
vt 0.630095 0.123730
vt 0.699115 0.017633
vt 0.709063 0.172893
vt 0.531433 0.131226
vt 0.550905 0.068446
vt 0.537983 0.068446
vt 0.656096 0.017633
vt 0.605287 0.017633
vt 0.538639 0.315113
vt 0.477364 0.317842
vt 0.465078 0.317842
vt 0.466558 0.349021
vt 0.456847 0.315113
vt 0.464867 0.349021
vt 0.436552 0.148736
vt 0.437987 0.173522
vt 0.608799 0.176799
vt 0.630325 0.176799
vt 0.450200 0.121597
vt 0.830277 0.200540
vt 0.828660 0.269712
vt 0.745583 0.092447
vt 0.737418 0.269712
vt 0.758414 0.170669
vt 0.750504 0.269712
vt 0.814609 0.269712
vt 0.765414 0.079597
vt 0.780501 0.200565
vt 0.772928 0.269712
vt 0.448939 0.148736
vt 0.450200 0.173522
vt 0.469132 0.315113
vt 0.484487 0.349021
vt 0.495041 0.315113
vt 0.494825 0.349021
vt 0.506657 0.315113
vt 0.504571 0.349021
vt 0.480170 0.087681
vt 0.471129 0.173522
vt 0.490859 0.173522
vt 0.783416 0.183471
vt 0.794068 0.269712
vt 0.791358 0.108066
vt 0.817834 0.200565
vt 0.516428 0.156797
vt 0.589100 0.172893
vt 0.650619 0.176799
vt 0.435104 0.123730
vt 0.447666 0.123730
vt 0.606184 0.021539
vt 0.596236 0.176799
vt 0.451601 0.135133
vt 0.432129 0.072353
vt 0.445051 0.072353
vt 0.649203 0.021539
vt 0.539121 0.315113
s 0
usemtl Body
f 291/250/170 285/251/170 237/252/170 245/253/170
f 253/254/171 250/252/171 235/252/171 246/255/171
f 292/256/172 251/257/172 241/257/172 288/256/172
f 290/258/173 288/256/173 241/257/173 247/259/173
f 293/260/174 256/261/174 244/257/174 289/256/174
f 257/253/175 255/252/175 243/252/175 249/253/175
f 282/262/176 257/253/176 249/253/176 280/263/176
f 299/264/177 290/258/177 247/259/177 278/265/177
f 281/266/178 253/254/178 246/255/178 277/267/178
f 298/268/179 291/250/179 245/253/179 276/269/179
f 280/263/180 249/253/180 253/254/180 281/266/180
f 289/256/172 244/257/172 251/257/172 292/256/172
f 249/253/181 243/252/181 250/252/181 253/254/181
f 283/270/182 262/253/182 257/253/182 282/262/182
f 262/253/175 260/252/175 255/252/175 257/253/175
f 294/271/183 261/272/183 256/261/183 293/260/183
f 297/273/184 273/274/184 261/272/184 294/271/184
f 274/253/175 272/252/175 260/252/175 262/253/175
f 284/275/185 274/253/185 262/253/185 283/270/185
f 244/257/186 256/261/186 261/272/186 259/276/186
f 271/277/187 275/278/187 270/279/187 258/280/187
f 258/280/188 270/279/188 269/281/188 254/282/188
f 242/283/189 267/284/189 268/285/189 252/286/189
f 287/287/190 295/288/190 263/289/190 236/290/190
f 252/286/191 268/285/191 264/291/191 234/292/191
f 286/293/192 296/294/192 265/295/192 240/296/192
f 254/282/193 269/281/193 267/284/193 242/283/193
f 236/290/194 263/289/194 275/278/194 271/277/194
f 276/269/195 245/253/195 274/253/195 284/275/195
f 245/253/175 237/252/175 272/252/175 274/253/175
f 285/251/196 239/297/196 273/274/196 297/273/196
f 263/289/197 276/269/197 284/275/197 275/278/197
f 275/278/198 284/275/198 283/270/198 270/279/198
f 270/279/199 283/270/199 282/262/199 269/281/199
f 267/284/200 280/263/200 281/266/200 268/285/200
f 295/288/201 298/268/201 276/269/201 263/289/201
f 268/285/202 281/266/202 277/267/202 264/291/202
f 296/294/203 299/264/203 278/265/203 265/295/203
f 269/281/204 282/262/204 280/263/204 267/284/204
f 264/291/205 277/267/205 299/264/205 296/294/205
f 266/298/206 279/299/206 298/268/206 295/288/206
f 237/252/207 285/251/207 297/273/207 272/252/207
f 234/292/208 264/291/208 296/294/208 286/293/208
f 238/300/209 266/298/209 295/288/209 287/287/209
f 272/252/210 297/273/210 294/271/210 260/252/210
f 260/252/211 294/271/211 293/260/211 255/252/211
f 243/252/172 289/256/172 292/256/172 250/252/172
f 279/299/212 248/301/212 291/250/212 298/268/212
f 277/267/213 246/255/213 290/258/213 299/264/213
f 255/252/214 293/260/214 289/256/214 243/252/214
f 246/255/215 235/252/215 288/256/215 290/258/215
f 250/252/172 292/256/172 288/256/172 235/252/172
f 248/301/216 239/297/216 285/251/216 291/250/216
f 271/277/217 258/280/217 236/290/217
f 342/302/218 307/303/218 303/304/218 336/305/218
f 312/306/219 308/307/219 301/304/219 310/304/219
f 343/308/172 339/308/172 241/257/172 251/257/172
f 341/309/220 247/259/220 241/257/220 339/308/220
f 344/310/221 340/308/221 244/257/221 256/261/221
f 315/303/222 309/303/222 306/304/222 314/304/222
f 333/311/223 331/312/223 309/303/223 315/303/223
f 350/313/224 278/265/224 247/259/224 341/309/224
f 332/314/225 330/315/225 308/307/225 312/306/225
f 349/316/226 329/317/226 307/303/226 342/302/226
f 331/312/227 332/314/227 312/306/227 309/303/227
f 340/308/172 343/308/172 251/257/172 244/257/172
f 309/303/228 312/306/228 310/304/228 306/304/228
f 334/318/229 333/311/229 315/303/229 318/303/229
f 318/303/222 315/303/222 314/304/222 317/304/222
f 345/319/230 344/310/230 256/261/230 261/272/230
f 348/320/231 345/319/231 261/272/231 273/274/231
f 327/303/222 318/303/222 317/304/222 326/304/222
f 335/321/232 334/318/232 318/303/232 327/303/232
f 325/322/233 316/323/233 324/324/233 328/325/233
f 316/323/234 313/326/234 323/327/234 324/324/234
f 305/328/235 311/329/235 322/330/235 321/331/235
f 338/332/236 302/333/236 319/334/236 346/335/236
f 311/329/237 300/336/237 320/337/237 322/330/237
f 337/338/238 304/339/238 265/295/238 347/340/238
f 313/326/239 305/328/239 321/331/239 323/327/239
f 302/333/240 325/322/240 328/325/240 319/334/240
f 329/317/241 335/321/241 327/303/241 307/303/241
f 307/303/222 327/303/222 326/304/222 303/304/222
f 336/305/242 348/320/242 273/274/242 239/297/242
f 319/334/243 328/325/243 335/321/243 329/317/243
f 328/325/244 324/324/244 334/318/244 335/321/244
f 324/324/245 323/327/245 333/311/245 334/318/245
f 321/331/246 322/330/246 332/314/246 331/312/246
f 346/335/247 319/334/247 329/317/247 349/316/247
f 322/330/248 320/337/248 330/315/248 332/314/248
f 347/340/249 265/295/249 278/265/249 350/313/249
f 323/327/250 321/331/250 331/312/250 333/311/250
f 320/337/251 347/340/251 350/313/251 330/315/251
f 266/298/252 346/335/252 349/316/252 279/299/252
f 303/304/253 326/304/253 348/320/253 336/305/253
f 300/336/254 337/338/254 347/340/254 320/337/254
f 238/300/255 338/332/255 346/335/255 266/298/255
f 326/304/256 317/304/256 345/319/256 348/320/256
f 317/304/257 314/304/257 344/310/257 345/319/257
f 306/304/172 310/304/172 343/308/172 340/308/172
f 279/299/258 349/316/258 342/302/258 248/301/258
f 330/315/259 350/313/259 341/309/259 308/307/259
f 314/304/260 306/304/260 340/308/260 344/310/260
f 308/307/261 341/309/261 339/308/261 301/304/261
f 310/304/172 301/304/172 339/308/172 343/308/172
f 248/301/262 342/302/262 336/305/262 239/297/262
f 325/322/263 302/333/263 316/323/263
f 370/341/264 352/342/264 355/343/264
f 418/343/265 352/342/265 351/344/265 356/345/265
f 421/346/266 419/347/266 357/347/266 401/346/266
f 409/348/267 371/349/267 410/350/267
f 395/351/268 396/352/268 361/353/268 365/354/268
f 363/355/269 359/356/269 420/356/269 360/356/269
f 367/357/270 374/358/270 359/356/270 363/355/270
f 361/353/271 396/352/271 390/359/271 407/360/271
f 395/351/272 365/354/272 353/361/272
f 375/362/273 382/363/273 367/357/273
f 382/363/274 381/364/274 374/358/274 367/357/274
f 363/355/275 360/356/275 373/358/275 367/357/275
f 401/346/276 357/347/276 372/365/276 403/366/276
f 357/347/277 356/345/277 369/367/277 372/365/277
f 356/345/278 351/344/278 368/368/278 369/367/278
f 379/369/279 378/370/279 352/342/279 370/341/279
f 386/371/280 385/372/280 378/370/280 379/369/280
f 404/373/281 387/374/281 380/375/281
f 383/376/282 388/377/282 381/364/282 382/363/282
f 383/376/283 382/363/283 375/362/283
f 367/357/284 377/363/284 375/362/284
f 367/357/285 373/358/285 376/364/285 377/363/285
f 389/378/286 394/379/286 383/376/286
f 394/379/287 393/359/287 388/377/287 383/376/287
f 392/380/288 387/374/288 404/373/288
f 375/362/289 377/363/289 383/376/289
f 377/363/290 376/364/290 384/377/290 383/376/290
f 395/351/291 397/352/291 393/359/291 394/379/291
f 395/351/292 394/379/292 389/378/292
f 383/376/293 391/379/293 389/378/293
f 383/376/294 384/377/294 390/359/294 391/379/294
f 353/361/295 366/354/295 395/351/295
f 366/354/296 362/353/296 397/352/296 395/351/296
f 402/381/297 358/382/297 392/380/297
f 389/378/298 391/379/298 395/351/298
f 391/379/299 390/359/299 396/352/299 395/351/299
f 404/373/300 380/375/300 410/350/300
f 407/360/301 402/381/301 392/380/301 412/383/301
f 412/383/302 392/380/302 404/373/302 411/384/302
f 411/384/303 404/373/303 410/350/303
f 371/349/304 410/350/304 380/375/304
f 406/385/305 401/346/305 403/366/305 408/386/305
f 422/385/266 421/346/266 401/346/266 406/385/266
f 416/387/306 409/348/306 405/388/306
f 423/389/307 422/385/307 406/385/307 413/390/307
f 413/390/308 406/385/308 408/386/308 415/391/308
f 410/350/306 409/348/306 416/387/306
f 417/392/306 411/384/306 410/350/306
f 412/383/306 411/384/306 417/392/306
f 414/393/306 407/360/306 412/383/306
f 362/353/309 414/393/309 412/383/309 397/352/309
f 412/383/271 407/360/271 390/359/271 384/377/271 376/364/271 409/348/271 410/350/271 411/384/271
f 397/352/310 412/383/310 393/359/310
f 393/359/311 412/383/311 417/392/311 388/377/311
f 388/377/312 417/392/312 410/350/312 381/364/312
f 381/364/313 410/350/313 416/387/313 374/358/313
f 360/356/278 413/390/278 415/391/278 373/358/278
f 420/356/314 423/389/314 413/390/314 360/356/314
f 374/358/315 416/387/315 405/388/315 359/356/315
f 359/356/316 405/388/316 423/389/316 420/356/316
f 405/388/317 422/385/317 423/389/317
f 355/343/318 352/342/318 418/343/318
f 354/343/319 423/389/319 405/388/319 409/348/319 376/364/319 373/358/319 415/391/319 408/386/319 403/366/319 372/365/319 369/367/319 356/345/319 418/343/319 398/341/319
f 407/360/320 412/383/320 411/384/320 410/350/320 409/348/320 364/394/320
f 437/395/264 427/396/264 425/397/264
f 482/396/321 428/398/321 424/399/321 425/397/321
f 485/400/322 468/400/322 429/401/322 483/401/322
f 474/402/267 475/403/267 438/404/267
f 462/405/323 365/354/323 361/353/323 463/406/323
f 432/407/324 431/408/324 484/408/324 430/408/324
f 434/409/325 432/407/325 430/408/325 441/410/325
f 361/353/271 407/360/271 457/411/271 463/406/271
f 462/405/326 353/361/326 365/354/326
f 442/412/327 434/409/327 449/413/327
f 449/413/328 434/409/328 441/410/328 448/414/328
f 432/407/329 434/409/329 440/410/329 431/408/329
f 468/400/276 469/415/276 439/416/276 429/401/276
f 429/401/277 439/416/277 436/417/277 428/398/277
f 428/398/278 436/417/278 435/418/278 424/399/278
f 446/419/330 437/395/330 425/397/330 445/420/330
f 453/421/280 446/419/280 445/420/280 452/422/280
f 470/423/281 447/424/281 454/425/281
f 450/426/331 449/413/331 448/414/331 455/427/331
f 450/426/332 442/412/332 449/413/332
f 434/409/333 442/412/333 444/413/333
f 434/409/334 444/413/334 443/414/334 440/410/334
f 456/428/335 450/426/335 461/429/335
f 461/429/336 450/426/336 455/427/336 460/411/336
f 459/430/337 470/423/337 454/425/337
f 442/412/338 450/426/338 444/413/338
f 444/413/339 450/426/339 451/427/339 443/414/339
f 462/405/340 461/429/340 460/411/340 464/406/340
f 462/405/341 456/428/341 461/429/341
f 450/426/342 456/428/342 458/429/342
f 450/426/343 458/429/343 457/411/343 451/427/343
f 353/361/344 462/405/344 366/354/344
f 366/354/345 462/405/345 464/406/345 362/353/345
f 402/381/346 459/430/346 358/382/346
f 456/428/347 462/405/347 458/429/347
f 458/429/348 462/405/348 463/406/348 457/411/348
f 470/423/349 475/403/349 447/424/349
f 407/360/350 477/431/350 459/430/350 402/381/350
f 477/431/351 476/432/351 470/423/351 459/430/351
f 476/432/303 475/403/303 470/423/303
f 438/404/352 447/424/352 475/403/352
f 472/433/305 473/434/305 469/415/305 468/400/305
f 486/433/322 472/433/322 468/400/322 485/400/322
f 480/435/306 471/436/306 474/402/306
f 487/437/353 478/438/353 472/433/353 486/433/353
f 478/438/308 479/439/308 473/434/308 472/433/308
f 475/403/306 480/435/306 474/402/306
f 481/440/306 475/403/306 476/432/306
f 477/431/306 481/440/306 476/432/306
f 414/393/306 477/431/306 407/360/306
f 362/353/354 464/406/354 477/431/354 414/393/354
f 477/431/271 476/432/271 475/403/271 474/402/271 443/414/271 451/427/271 457/411/271 407/360/271
f 464/406/310 460/411/310 477/431/310
f 460/411/355 455/427/355 481/440/355 477/431/355
f 455/427/356 448/414/356 475/403/356 481/440/356
f 448/414/357 441/410/357 480/435/357 475/403/357
f 431/408/278 440/410/278 479/439/278 478/438/278
f 484/408/358 431/408/358 478/438/358 487/437/358
f 441/410/359 430/408/359 471/436/359 480/435/359
f 430/408/360 484/408/360 487/437/360 471/436/360
f 471/436/361 487/437/361 486/433/361
f 427/396/362 482/396/362 425/397/362
f 426/396/363 465/395/363 482/396/363 428/398/363 436/417/363 439/416/363 469/415/363 473/434/363 479/439/363 440/410/363 443/414/363 474/402/363 471/436/363 487/437/363
f 407/360/320 433/441/320 474/402/320 475/403/320 476/432/320 477/431/320
f 258/280/364 357/347/364 419/347/364 271/277/364 236/290/364
f 271/277/365 419/347/365 236/290/365
f 409/348/366 236/290/366 419/347/366 421/346/366 422/385/366 405/388/366
f 236/290/367 409/348/367 371/349/367 380/375/367 287/287/367
f 380/375/368 387/374/368 287/287/368
f 287/287/369 387/374/369 392/380/369 358/382/369 238/300/369
f 338/332/370 238/300/370 358/382/370 459/430/370 454/425/370
f 454/425/368 447/424/368 338/332/368
f 302/333/371 338/332/371 447/424/371 438/404/371 474/402/371
f 302/333/372 474/402/372 471/436/372 486/433/372 485/400/372 483/401/372
f 429/401/373 316/323/373 302/333/373 325/322/373 483/401/373
f 483/401/374 325/322/374 302/333/374
l 400 399
l 364 400
l 423 364
l 467 466
l 433 467
l 487 433
o Cube.010
v 0.092257 1.352738 0.181906
v 0.138140 1.849314 0.137814
v 0.092257 1.352738 0.133601
v 0.138140 1.830573 0.076668
v 0.144443 1.352738 0.181906
v 0.161159 1.850823 0.137814
v 0.144443 1.352738 0.133601
v 0.161159 1.832082 0.076668
v 0.103501 1.386893 0.133601
v 0.151607 1.830573 0.076668
v 0.108325 1.385831 0.170261
v 0.151607 1.849314 0.137814
v 0.110561 1.481001 0.181906
v 0.110561 1.481001 0.133601
v 0.165193 1.481603 0.133601
v 0.165193 1.481603 0.181906
v 0.123739 1.503952 0.186396
v 0.122692 1.501531 0.133601
v 0.132336 1.677518 0.128449
v 0.148710 1.664531 0.085092
v 0.154808 1.665849 0.085092
v 0.162007 1.678836 0.128449
v 0.134540 1.681839 0.128449
v 0.154697 1.668851 0.085092
v 0.092257 1.383862 0.157147
v 0.138140 1.839944 0.107241
v 0.144443 1.383862 0.157147
v 0.161159 1.841452 0.107241
v 0.151607 1.839944 0.107241
v 0.103501 1.386893 0.157753
v 0.159247 1.479847 0.162235
v 0.104608 1.483646 0.151654
v 0.178381 1.672343 0.106771
v 0.125137 1.671025 0.106771
vn -0.9119 -0.0031 -0.4104
vn -0.0079 -0.0512 -0.9987
vn 0.9570 0.0424 0.2870
vn 0.0155 -0.0562 0.9983
vn -0.2626 -0.7468 -0.6110
vn -0.0000 0.9561 -0.2930
vn -0.1493 0.9454 -0.2898
vn 0.5506 -0.5952 -0.5853
vn -0.0022 -0.0550 0.9985
vn 0.0113 -0.0509 -0.9986
vn -0.0000 -0.0000 -1.0000
vn -0.1246 -0.0465 0.9911
vn 0.4452 -0.1190 0.8875
vn 0.9629 -0.1471 -0.2261
vn -0.9633 0.1237 -0.2383
vn 0.4388 -0.3199 -0.8397
vn 0.1638 0.2778 0.9466
vn -0.6711 0.2645 0.6926
vn 0.9706 0.0272 0.2394
vn -0.1376 -0.2556 -0.9569
vn -0.8048 -0.0220 -0.5931
vn -0.9590 0.1648 0.2307
vn 0.9412 -0.1100 -0.3194
vn -0.9727 0.1353 0.1883
vn 0.9673 -0.1574 0.1988
vn 0.8077 -0.4937 0.3222
vn -0.3522 -0.7838 0.5115
vn 0.9091 0.0196 -0.4161
vn -0.9913 0.0512 0.1210
vt 0.920369 0.142239
vt 0.923609 0.142239
vt 0.923609 0.155046
vt 0.920369 0.155046
vt 0.920369 0.161656
vt 0.923609 0.161656
vt 0.923609 0.180660
vt 0.920369 0.180660
vt 0.920369 0.193466
vt 0.923609 0.193466
vt 0.923609 0.206273
vt 0.920369 0.206273
vt 0.920369 0.225277
vt 0.923609 0.225277
vt 0.923609 0.231887
vt 0.920369 0.231887
vt 0.878991 0.193466
vt 0.897995 0.193466
vt 0.897995 0.206273
vt 0.878991 0.206273
vt 0.942613 0.193467
vt 0.949223 0.193466
vt 0.949223 0.206273
vt 0.942613 0.206273
vt 0.872381 0.193466
vt 0.872381 0.206273
vt 0.897995 0.155046
vt 0.908213 0.155046
vt 0.908213 0.161656
vt 0.897995 0.161656
vt 0.908213 0.206273
vt 0.908213 0.225277
vt 0.897995 0.225277
vt 0.908213 0.231887
vt 0.897995 0.231887
vt 0.908213 0.193466
vt 0.908213 0.180660
vt 0.897995 0.180660
vt 0.897995 0.142239
vt 0.908213 0.142239
vt 0.908213 0.129432
vt 0.920369 0.129432
vt 0.897995 0.129432
vt 0.872381 0.180660
vt 0.878991 0.180660
vt 0.942613 0.180660
vt 0.949223 0.180660
vt 0.923609 0.129432
s 0
usemtl Body
f 521/442/375 513/443/375 491/444/375 507/445/375
f 511/446/376 497/447/376 495/448/376 508/449/376
f 520/450/377 515/451/377 493/452/377 509/453/377
f 510/454/378 499/455/378 489/456/378 506/457/378
f 517/458/379 514/459/379 492/460/379 498/461/379
f 516/462/380 513/463/380 489/464/380 499/465/380
f 515/451/381 516/462/381 499/465/381 493/452/381
f 512/466/382 517/458/382 498/461/382 488/467/382
f 509/453/383 493/452/383 499/455/383 510/454/383
f 507/445/384 491/444/384 497/447/384 511/446/384
f 490/468/385 501/469/385 505/470/385 496/471/385
f 492/460/386 503/472/386 504/473/386 498/474/386
f 498/474/387 504/473/387 500/475/387 488/476/387
f 514/459/388 518/477/388 503/472/388 492/460/388
f 496/471/385 505/470/385 502/478/385 494/479/385
f 512/480/389 519/481/389 501/469/389 490/468/389
f 501/469/390 507/445/390 511/446/390 505/470/390
f 503/472/391 509/453/391 510/454/391 504/473/391
f 504/473/392 510/454/392 506/457/392 500/475/392
f 518/477/393 520/450/393 509/453/393 503/472/393
f 505/470/394 511/446/394 508/449/394 502/478/394
f 519/481/395 521/442/395 507/445/395 501/469/395
f 500/482/396 506/483/396 521/442/396 519/481/396
f 502/478/397 508/449/397 520/450/397 518/477/397
f 488/484/398 500/482/398 519/481/398 512/480/398
f 494/479/399 502/478/399 518/477/399 514/459/399
f 490/485/400 496/486/400 517/458/400 512/466/400
f 495/448/381 497/487/381 516/462/381 515/451/381
f 497/487/380 491/488/380 513/463/380 516/462/380
f 496/486/401 494/479/401 514/459/401 517/458/401
f 508/449/402 495/448/402 515/451/402 520/450/402
f 506/483/403 489/489/403 513/443/403 521/442/403
o Cube.011
v -0.093419 1.352738 0.181906
v -0.139302 1.849314 0.137814
v -0.093419 1.352738 0.133601
v -0.139302 1.830573 0.076668
v -0.145606 1.352738 0.181906
v -0.162321 1.850823 0.137814
v -0.145606 1.352738 0.133601
v -0.162321 1.832082 0.076668
v -0.104664 1.386893 0.133601
v -0.152770 1.830573 0.076668
v -0.109487 1.385831 0.170261
v -0.152770 1.849314 0.137814
v -0.111724 1.481001 0.181906
v -0.111724 1.481001 0.133601
v -0.166355 1.481603 0.133601
v -0.166355 1.481603 0.181906
v -0.124901 1.503952 0.186396
v -0.123855 1.501531 0.133601
v -0.133499 1.677518 0.128449
v -0.149873 1.664531 0.085092
v -0.155970 1.665849 0.085092
v -0.163170 1.678836 0.128449
v -0.135702 1.681839 0.128449
v -0.155859 1.668851 0.085092
v -0.093419 1.383862 0.157147
v -0.139302 1.839944 0.107241
v -0.145606 1.383862 0.157147
v -0.162321 1.841452 0.107241
v -0.152770 1.839944 0.107241
v -0.104664 1.386893 0.157753
v -0.160409 1.479847 0.162235
v -0.105770 1.483646 0.151654
v -0.179544 1.672343 0.106771
v -0.126299 1.671025 0.106771
vn 0.9119 -0.0031 -0.4104
vn 0.0079 -0.0512 -0.9987
vn -0.9570 0.0424 0.2870
vn -0.0155 -0.0562 0.9983
vn 0.2626 -0.7468 -0.6110
vn -0.0000 0.9561 -0.2930
vn 0.1493 0.9454 -0.2898
vn -0.5506 -0.5952 -0.5853
vn 0.0022 -0.0550 0.9985
vn -0.0113 -0.0509 -0.9986
vn -0.0000 -0.0000 -1.0000
vn 0.1246 -0.0465 0.9911
vn -0.4452 -0.1190 0.8875
vn -0.9629 -0.1471 -0.2261
vn 0.9633 0.1237 -0.2383
vn -0.4388 -0.3199 -0.8397
vn -0.1638 0.2778 0.9466
vn 0.6711 0.2645 0.6926
vn -0.9706 0.0272 0.2394
vn 0.1376 -0.2556 -0.9569
vn 0.8048 -0.0220 -0.5931
vn 0.9590 0.1648 0.2307
vn -0.9412 -0.1100 -0.3194
vn 0.9727 0.1353 0.1883
vn -0.9673 -0.1574 0.1988
vn -0.8077 -0.4937 0.3222
vn 0.3522 -0.7838 0.5115
vn -0.9091 0.0196 -0.4161
vn 0.9913 0.0512 0.1210
vt 0.908389 0.143549
vt 0.908389 0.165221
vt 0.913871 0.165221
vt 0.913871 0.143549
vt 0.908389 0.176406
vt 0.908389 0.208563
vt 0.913871 0.208563
vt 0.913871 0.176406
vt 0.908389 0.230234
vt 0.908389 0.251906
vt 0.913871 0.251906
vt 0.913871 0.230234
vt 0.908389 0.284063
vt 0.908389 0.295248
vt 0.913871 0.295248
vt 0.913871 0.284063
vt 0.838371 0.230234
vt 0.838371 0.251906
vt 0.870528 0.251906
vt 0.870528 0.230234
vt 0.946028 0.230234
vt 0.946028 0.251906
vt 0.957213 0.251906
vt 0.957213 0.230234
vt 0.827186 0.230234
vt 0.827186 0.251906
vt 0.870528 0.165221
vt 0.870528 0.176406
vt 0.887819 0.176406
vt 0.887819 0.165221
vt 0.870528 0.284063
vt 0.887819 0.284063
vt 0.887819 0.251906
vt 0.870528 0.295248
vt 0.887819 0.295248
vt 0.887819 0.230234
vt 0.870528 0.208563
vt 0.887819 0.208563
vt 0.870528 0.143549
vt 0.887819 0.143549
vt 0.887819 0.121878
vt 0.908389 0.121878
vt 0.870528 0.121878
vt 0.827186 0.208563
vt 0.838371 0.208563
vt 0.946028 0.208563
vt 0.957213 0.208563
vt 0.913871 0.121878
s 0
usemtl Body
f 555/490/404 541/491/404 525/492/404 547/493/404
f 545/494/405 542/495/405 529/496/405 531/497/405
f 554/498/406 543/499/406 527/500/406 549/501/406
f 544/502/407 540/503/407 523/504/407 533/505/407
f 551/506/408 532/507/408 526/508/408 548/509/408
f 550/510/409 533/511/409 523/512/409 547/513/409
f 549/501/410 527/500/410 533/511/410 550/510/410
f 546/514/411 522/515/411 532/507/411 551/506/411
f 543/499/412 544/502/412 533/505/412 527/500/412
f 541/491/413 545/494/413 531/497/413 525/492/413
f 524/516/414 530/517/414 539/518/414 535/519/414
f 526/508/415 532/520/415 538/521/415 537/522/415
f 532/520/416 522/523/416 534/524/416 538/521/416
f 548/509/417 526/508/417 537/522/417 552/525/417
f 530/517/414 528/526/414 536/527/414 539/518/414
f 546/528/418 524/516/418 535/519/418 553/529/418
f 535/519/419 539/518/419 545/494/419 541/491/419
f 537/522/420 538/521/420 544/502/420 543/499/420
f 538/521/421 534/524/421 540/503/421 544/502/421
f 552/525/422 537/522/422 543/499/422 554/498/422
f 539/518/423 536/527/423 542/495/423 545/494/423
f 553/529/424 535/519/424 541/491/424 555/490/424
f 534/530/425 553/529/425 555/490/425 540/531/425
f 536/527/426 552/525/426 554/498/426 542/495/426
f 522/532/427 546/528/427 553/529/427 534/530/427
f 528/526/428 548/509/428 552/525/428 536/527/428
f 524/533/429 546/514/429 551/506/429 530/534/429
f 529/496/410 549/501/410 550/510/410 531/535/410
f 531/535/409 550/510/409 547/513/409 525/536/409
f 530/534/430 551/506/430 548/509/430 528/526/430
f 542/495/431 554/498/431 549/501/431 529/496/431
f 540/531/432 555/490/432 547/493/432 523/537/432
o Cube.012
v -0.559068 1.021052 0.046431
v -0.554596 1.033432 0.058718
v -0.541474 1.032383 0.046431
v -0.463763 1.222977 0.058718
v -0.447605 1.245291 0.046431
v -0.442027 1.239904 0.046431
v -0.559068 1.021052 -0.008751
v -0.541474 1.032383 -0.008751
v -0.554596 1.033432 -0.021038
v -0.447605 1.245291 -0.008751
v -0.463763 1.222977 -0.021038
v -0.442027 1.239904 -0.008751
v -0.623763 1.019727 0.046431
v -0.641220 1.030620 0.046431
v -0.628279 1.031923 0.058718
v -0.672696 1.127596 0.046431
v -0.667506 1.116444 0.058718
v -0.678412 1.110757 0.046431
v -0.623763 1.019727 -0.008751
v -0.628279 1.031923 -0.021038
v -0.641220 1.030620 -0.008751
v -0.672696 1.127595 -0.008751
v -0.678412 1.110757 -0.008751
v -0.667506 1.116444 -0.021038
vn 0.4540 -0.7049 0.5450
vn 0.2853 0.2955 0.9118
vn 0.4540 -0.7049 -0.5450
vn 0.2853 0.2954 -0.9118
vn -0.4444 -0.7121 0.5436
vn -0.7788 0.2643 0.5689
vn -0.4444 -0.7121 -0.5436
vn -0.7788 0.2643 -0.5689
vn 0.5415 -0.8407 -0.0000
vn 0.6377 -0.3056 0.7071
vn 0.6947 0.7193 -0.0000
vn 0.6377 -0.3056 -0.7071
vn 0.0145 -0.7070 -0.7071
vn -0.3276 0.6266 -0.7071
vn -0.6414 -0.2977 -0.7071
vn -0.5294 -0.8484 -0.0000
vn -0.9469 0.3214 -0.0000
vn -0.6414 -0.2977 0.7071
vn 0.0145 -0.7070 0.7071
vn -0.3276 0.6266 0.7071
vn 0.0205 -0.9998 -0.0000
vn 0.9018 -0.4322 -0.0000
vn -0.0000 -0.0000 1.0000
vn -0.4634 0.8862 -0.0000
vn -0.0000 -0.0000 -1.0000
vn -0.9071 -0.4210 -0.0000
vt 0.457299 0.590251
vt 0.453681 0.590251
vt 0.455908 0.594301
vt 0.504110 0.618592
vt 0.504989 0.620589
vt 0.506257 0.619430
vt 0.457299 0.572063
vt 0.455908 0.568013
vt 0.453681 0.572063
vt 0.506257 0.541148
vt 0.504989 0.538688
vt 0.504110 0.543722
vt 0.476352 0.590251
vt 0.480094 0.595762
vt 0.482115 0.590251
vt 0.506837 0.591554
vt 0.503397 0.590251
vt 0.503583 0.595483
vt 0.476352 0.572063
vt 0.482115 0.572063
vt 0.480094 0.566552
vt 0.506837 0.570761
vt 0.503583 0.566831
vt 0.503397 0.572063
vt 0.481844 0.617446
vt 0.481238 0.620589
vt 0.506257 0.519487
vt 0.504989 0.519487
vt 0.481238 0.537675
vt 0.481843 0.544868
vt 0.481238 0.519487
vt 0.531386 0.590251
vt 0.531386 0.572063
s 0
usemtl Body
f 556/538/433 558/539/433 557/540/433
f 559/541/434 561/542/434 560/543/434
f 562/544/435 564/545/435 563/546/435
f 565/547/436 567/548/436 566/549/436
f 568/550/437 570/551/437 569/552/437
f 571/553/438 573/554/438 572/555/438
f 574/556/439 576/557/439 575/558/439
f 577/559/440 579/560/440 578/561/440
f 562/544/441 563/546/441 558/539/441 556/538/441
f 557/562/442 558/563/442 561/542/442 559/541/442
f 560/564/443 561/565/443 567/548/443 565/547/443
f 566/549/444 567/548/444 563/566/444 564/567/444
f 574/556/445 575/558/445 564/545/445 562/544/445
f 565/547/446 566/549/446 579/560/446 577/559/446
f 578/561/447 579/560/447 575/558/447 576/557/447
f 568/550/448 569/552/448 576/557/448 574/556/448
f 577/559/449 578/561/449 573/554/449 571/553/449
f 572/555/450 573/554/450 569/552/450 570/551/450
f 556/538/451 557/540/451 570/551/451 568/550/451
f 571/553/452 572/555/452 559/541/452 560/543/452
f 562/544/453 556/538/453 568/550/453 574/556/453
f 558/568/454 563/566/454 567/548/454 561/565/454
f 570/551/455 557/562/455 559/541/455 572/555/455
f 577/559/456 571/553/456 560/569/456 565/570/456
f 564/567/457 575/558/457 579/560/457 566/549/457
f 576/557/458 569/552/458 573/554/458 578/561/458
o Cube.013
v -0.464683 1.145797 0.072235
v -0.103036 1.495232 0.082561
v -0.464683 1.145797 -0.037573
v -0.103036 1.495232 -0.047898
v -0.552557 1.225320 0.072235
v -0.168104 1.561352 0.082561
v -0.552557 1.225320 -0.037573
v -0.168104 1.561352 -0.047898
v -0.431063 1.179732 0.072235
v -0.431063 1.179732 -0.037572
v -0.516420 1.257118 -0.037573
v -0.516420 1.257118 0.072235
v -0.379357 1.185919 0.082560
v -0.379357 1.185919 -0.047898
v -0.527030 1.300289 -0.047898
v -0.527030 1.300289 0.082560
v -0.256756 1.323158 0.089784
v -0.256756 1.323158 -0.055121
v -0.393863 1.428151 -0.055121
v -0.393862 1.428150 0.089785
v -0.236888 1.345398 0.082561
v -0.236888 1.345398 -0.047898
v -0.348486 1.437823 -0.047897
v -0.348486 1.437823 0.082561
v -0.274707 1.303064 -0.047898
v -0.395881 1.401314 -0.047897
v -0.395881 1.401314 0.082561
v -0.274707 1.303064 0.082560
vn 0.7458 -0.6662 -0.0000
vn -0.0000 -0.0000 -1.0000
vn -0.5650 0.8251 -0.0000
vn -0.0000 -0.0000 1.0000
vn -0.6710 -0.7415 -0.0000
vn 0.7128 0.7014 -0.0000
vn -0.6606 0.7507 -0.0000
vn 0.7104 -0.7038 -0.0000
vn -0.1945 -0.2364 0.9520
vn -0.9711 -0.2387 -0.0000
vn -0.1945 -0.2364 -0.9520
vn 0.1188 -0.9929 -0.0000
vn -0.1741 -0.2213 0.9595
vn -0.9972 0.0750 -0.0000
vn -0.1741 -0.2213 -0.9595
vn 0.1338 0.1686 0.9766
vn -0.2085 0.9780 -0.0000
vn 0.1338 0.1686 -0.9766
vn -0.6102 0.7922 -0.0000
vt 0.276568 0.145353
vt 0.241993 0.146702
vt 0.277015 0.095480
vt 0.240656 0.114880
vt 0.328176 0.130634
vt 0.327647 0.089850
vt 0.318987 0.464468
vt 0.227311 0.464303
vt 0.225676 0.390472
vt 0.314799 0.390472
vt 0.319443 0.092155
vt 0.319975 0.131802
vt 0.313369 0.143917
vt 0.314996 0.079701
vt 0.287097 0.091291
vt 0.286337 0.144972
vt 0.281700 0.145153
vt 0.283366 0.085799
s 0
usemtl Body
f 600/571/459 601/571/459 583/572/459 581/572/459
f 601/571/460 602/573/460 587/574/460 583/572/460
f 602/573/461 603/573/461 585/574/461 587/574/461
f 603/573/462 600/571/462 581/572/462 585/574/462
f 582/575/463 580/575/463 584/576/463 586/576/463
f 587/574/464 585/574/464 581/572/464 583/572/464
f 584/577/462 580/578/462 588/579/462 591/580/462
f 586/577/465 584/577/465 591/580/465 590/580/465
f 582/578/460 586/577/460 590/580/460 589/579/460
f 580/578/466 582/578/466 589/579/466 588/579/466
f 591/581/467 588/582/467 592/583/467 595/584/467
f 590/581/468 591/581/468 595/584/468 594/584/468
f 589/582/469 590/581/469 594/584/469 593/583/469
f 588/582/470 589/582/470 593/583/470 592/583/470
f 606/585/471 607/586/471 596/587/471 599/588/471
f 605/585/472 606/585/472 599/588/472 598/588/472
f 604/586/473 605/585/473 598/588/473 597/587/473
f 607/586/459 604/586/459 597/587/459 596/587/459
f 599/588/474 596/587/474 600/571/474 603/573/474
f 598/588/475 599/588/475 603/573/475 602/573/475
f 597/587/476 598/588/476 602/573/476 601/571/476
f 596/587/459 597/587/459 601/571/459 600/571/459
f 592/583/459 593/583/459 604/586/459 607/586/459
f 593/583/460 594/584/460 605/585/460 604/586/460
f 594/584/477 595/584/477 606/585/477 605/585/477
f 595/584/462 592/583/462 607/586/462 606/585/462
o Sphere
v 0.236501 2.079146 0.100378
v 0.228307 2.068496 0.059019
v 0.206853 2.040611 0.033458
v 0.180335 2.006144 0.033458
v 0.158882 1.978260 0.059019
v 0.150687 1.967609 0.100378
v 0.259483 2.044510 0.087598
v 0.257297 2.001801 0.079699
v 0.230779 1.967334 0.079699
v 0.190057 1.954274 0.087598
v 0.247574 2.053672 0.133839
v 0.238029 2.016626 0.154518
v 0.211511 1.982159 0.154518
v 0.178149 1.963436 0.133839
v 0.209039 2.083320 0.133839
v 0.175677 2.064597 0.154518
v 0.149159 2.030130 0.154518
v 0.139614 1.993084 0.133839
v 0.197131 2.092482 0.087598
v 0.156410 2.079421 0.079699
v 0.129892 2.044954 0.079699
v 0.127706 2.002245 0.087598
vn 0.0926 -0.7106 -0.6975
vn 0.7106 0.0926 -0.6975
vn -0.3922 -0.8690 -0.3015
vn 0.4659 -0.3584 -0.8090
vn 0.7395 0.6019 -0.3015
vn 0.8468 0.5193 0.1152
vn 0.3408 -0.9016 0.2664
vn 0.9588 -0.0983 0.2664
vn -0.2849 -0.9516 0.1152
vn 0.7538 -0.5799 0.3090
vn 0.5658 0.7355 0.3727
vn -0.3090 -0.4016 0.8621
vn 0.3090 0.4016 0.8621
vn -0.5658 -0.7355 0.3727
vn -0.0000 -0.0000 1.0000
vn 0.2849 0.9516 0.1152
vn -0.9588 0.0983 0.2664
vn -0.3408 0.9016 0.2664
vn -0.8468 -0.5193 0.1152
vn -0.7538 0.5799 0.3090
vn 0.3922 0.8690 -0.3015
vn -0.7106 -0.0926 -0.6975
vn -0.0926 0.7106 -0.6975
vn -0.7395 -0.6019 -0.3015
vn -0.4659 0.3584 -0.8090
vt 0.859929 0.126119
vt 0.863621 0.135718
vt 0.872304 0.122358
vt 0.865295 0.117862
vt 0.868186 0.147583
vt 0.871878 0.157182
vt 0.877244 0.148925
vt 0.876868 0.134223
vt 0.858518 0.122452
vt 0.873289 0.160848
vt 0.875195 0.152079
vt 0.868988 0.127461
vt 0.863245 0.121016
vt 0.873552 0.139326
vt 0.868562 0.162285
vt 0.858256 0.143974
vt 0.856613 0.131222
vt 0.862820 0.155840
vt 0.866512 0.165438
vt 0.854939 0.149078
vt 0.854563 0.134376
vt 0.859504 0.160943
s 0
usemtl Body
f 612/589/478 611/590/478 616/591/478 617/592/478
f 610/593/479 609/594/479 614/595/479 615/596/479
f 613/597/480 612/589/480 617/592/480
f 611/590/481 610/593/481 615/596/481 616/591/481
f 609/594/482 608/598/482 614/595/482
f 614/595/483 608/598/483 618/599/483
f 617/592/484 616/591/484 620/600/484 621/601/484
f 615/596/485 614/595/485 618/599/485 619/602/485
f 613/597/486 617/592/486 621/601/486
f 616/591/487 615/596/487 619/602/487 620/600/487
f 618/599/488 608/598/488 622/603/488
f 621/601/489 620/600/489 624/604/489 625/605/489
f 619/602/490 618/599/490 622/603/490 623/606/490
f 613/597/491 621/601/491 625/605/491
f 620/600/492 619/602/492 623/606/492 624/604/492
f 622/603/493 608/598/493 626/607/493
f 625/605/494 624/604/494 628/608/494 629/609/494
f 623/606/495 622/603/495 626/607/495 627/610/495
f 613/597/496 625/605/496 629/609/496
f 624/604/497 623/606/497 627/610/497 628/608/497
f 626/607/498 608/598/498 609/594/498
f 629/609/499 628/608/499 611/590/499 612/589/499
f 627/610/500 626/607/500 609/594/500 610/593/500
f 613/597/501 629/609/501 612/589/501
f 628/608/502 627/610/502 610/593/502 611/590/502
o Sphere.001
v -0.238484 2.079146 0.100378
v -0.230290 2.068496 0.059019
v -0.208836 2.040611 0.033458
v -0.182318 2.006144 0.033458
v -0.160864 1.978260 0.059019
v -0.152670 1.967609 0.100378
v -0.261465 2.044510 0.087598
v -0.259279 2.001801 0.079699
v -0.232761 1.967334 0.079699
v -0.192040 1.954274 0.087598
v -0.249557 2.053672 0.133839
v -0.240012 2.016625 0.154518
v -0.213494 1.982159 0.154518
v -0.180132 1.963436 0.133839
v -0.211022 2.083320 0.133839
v -0.177660 2.064597 0.154518
v -0.151142 2.030130 0.154518
v -0.141597 1.993084 0.133839
v -0.199114 2.092482 0.087598
v -0.158393 2.079421 0.079699
v -0.131875 2.044954 0.079699
v -0.129689 2.002245 0.087598
vn -0.0926 -0.7106 -0.6975
vn -0.7106 0.0926 -0.6975
vn 0.3922 -0.8691 -0.3015
vn -0.4659 -0.3584 -0.8090
vn -0.7395 0.6019 -0.3015
vn -0.8468 0.5193 0.1152
vn -0.3408 -0.9016 0.2664
vn -0.9588 -0.0983 0.2664
vn 0.2849 -0.9516 0.1152
vn -0.7538 -0.5799 0.3090
vn -0.5659 0.7355 0.3727
vn 0.3090 -0.4016 0.8621
vn -0.3090 0.4016 0.8621
vn 0.5659 -0.7355 0.3727
vn -0.0000 -0.0000 1.0000
vn -0.2849 0.9516 0.1152
vn 0.9588 0.0983 0.2664
vn 0.3408 0.9016 0.2664
vn 0.8468 -0.5193 0.1152
vn 0.7538 0.5799 0.3090
vn -0.3922 0.8690 -0.3015
vn 0.7106 -0.0926 -0.6975
vn 0.0926 0.7106 -0.6975
vn 0.7395 -0.6019 -0.3015
vn 0.4659 0.3584 -0.8090
vt 0.804894 0.126119
vt 0.799528 0.117862
vt 0.792519 0.122358
vt 0.801201 0.135718
vt 0.796637 0.147583
vt 0.787955 0.134223
vt 0.787578 0.148925
vt 0.792944 0.157182
vt 0.806304 0.122452
vt 0.791534 0.160848
vt 0.789628 0.152079
vt 0.801578 0.121016
vt 0.795835 0.127461
vt 0.791271 0.139326
vt 0.796261 0.162285
vt 0.808210 0.131222
vt 0.806567 0.143974
vt 0.802003 0.155840
vt 0.798310 0.165438
vt 0.810260 0.134376
vt 0.809884 0.149078
vt 0.805319 0.160943
s 0
usemtl Body
f 634/611/503 639/612/503 638/613/503 633/614/503
f 632/615/504 637/616/504 636/617/504 631/618/504
f 635/619/505 639/612/505 634/611/505
f 633/614/506 638/613/506 637/616/506 632/615/506
f 631/618/507 636/617/507 630/620/507
f 636/617/508 640/621/508 630/620/508
f 639/612/509 643/622/509 642/623/509 638/613/509
f 637/616/510 641/624/510 640/621/510 636/617/510
f 635/619/511 643/622/511 639/612/511
f 638/613/512 642/623/512 641/624/512 637/616/512
f 640/621/513 644/625/513 630/620/513
f 643/622/514 647/626/514 646/627/514 642/623/514
f 641/624/515 645/628/515 644/625/515 640/621/515
f 635/619/516 647/626/516 643/622/516
f 642/623/517 646/627/517 645/628/517 641/624/517
f 644/625/518 648/629/518 630/620/518
f 647/626/519 651/630/519 650/631/519 646/627/519
f 645/628/520 649/632/520 648/629/520 644/625/520
f 635/619/521 651/630/521 647/626/521
f 646/627/522 650/631/522 649/632/522 645/628/522
f 648/629/523 631/618/523 630/620/523
f 651/630/524 634/611/524 633/614/524 650/631/524
f 649/632/525 632/615/525 631/618/525 648/629/525
f 635/619/526 634/611/526 651/630/526
f 650/631/527 633/614/527 632/615/527 649/632/527
o Cone.001
v 0.028123 2.081991 0.126705
v 0.067394 2.058671 0.144487
v -0.005402 2.009213 0.140920
v 0.073086 2.096851 0.145478
vn 0.3949 -0.0350 -0.9181
vn 0.2445 -0.2931 -0.9243
vn -0.0349 -0.0207 0.9992
vn -0.4594 0.3694 0.8078
vt 0.837423 0.161827
vt 0.845162 0.166943
vt 0.844182 0.153799
vt 0.831652 0.136774
s 0
usemtl Body
f 652/633/528 655/634/528 653/635/528
f 652/633/529 653/635/529 654/636/529
f 653/635/530 655/634/530 654/636/530
f 654/636/531 655/634/531 652/633/531
o Cube.009
v -0.017303 0.003775 0.313245
v -0.017303 0.311799 0.049373
v -0.017303 0.003774 -0.153380
v -0.017303 0.311799 -0.091507
v -0.188968 0.003775 0.313245
v -0.161671 0.311799 0.049373
v -0.188968 0.003774 -0.153380
v -0.161671 0.311799 -0.091507
v -0.017303 0.070460 0.313245
v -0.017303 0.070460 -0.129723
v -0.173500 0.070460 -0.129723
v -0.173500 0.070460 0.313245
v -0.017303 0.200417 0.061057
v -0.017303 0.200417 -0.091856
v -0.152572 0.200417 -0.091856
v -0.152572 0.200417 0.061057
vn 1.0000 -0.0000 -0.0000
vn -0.0000 0.0031 -1.0000
vn -0.9967 -0.0814 -0.0000
vn -0.0000 0.1043 0.9945
vn -0.0000 -1.0000 -0.0000
vn -0.0000 1.0000 -0.0000
vn -0.0000 -0.0000 1.0000
vn -0.9741 0.2260 -0.0000
vn -0.0000 0.3343 -0.9425
vn -0.0000 0.8889 0.4581
vn -0.9873 0.1590 -0.0000
vn -0.0000 0.2797 -0.9601
vt 0.283264 0.604003
vt 0.284968 0.664984
vt 0.305515 0.664984
vt 0.305566 0.604003
vt 0.133029 0.621035
vt 0.133029 0.686111
vt 0.171054 0.686111
vt 0.168657 0.621035
vt 0.170011 0.620921
vt 0.172583 0.685698
vt 0.131766 0.685698
vt 0.131766 0.620921
vt 0.314539 0.496341
vt 0.246484 0.496341
vt 0.180301 0.506559
vt 0.175927 0.545341
vt 0.131766 0.545341
vt 0.131766 0.506559
vt 0.311089 0.532851
vt 0.246484 0.532851
vt 0.133029 0.506145
vt 0.133029 0.545107
vt 0.174169 0.545107
vt 0.178244 0.506145
s 0
usemtl Body
f 668/637/532 669/640/532 659/639/532 657/638/532
f 669/641/533 670/644/533 663/643/533 659/642/533
f 670/640/534 671/637/534 661/638/534 663/639/534
f 671/645/535 668/648/535 657/647/535 661/646/535
f 658/649/536 656/650/536 660/650/536 662/649/536
f 663/639/537 661/638/537 657/638/537 659/639/537
f 660/651/538 656/654/538 664/653/538 667/652/538
f 662/649/539 660/650/539 667/656/539 666/655/539
f 658/657/540 662/660/540 666/659/540 665/658/540
f 656/650/532 658/649/532 665/655/532 664/656/532
f 667/652/541 664/653/541 668/648/541 671/645/541
f 666/655/542 667/656/542 671/637/542 670/640/542
f 665/658/543 666/659/543 670/644/543 669/641/543
f 664/656/532 665/655/532 669/640/532 668/637/532
