# Blender 5.2.0 LTS
# www.blender.org
mtllib crates1.mtl
o Cube.002
v -1.613421 -1.713133 -1.158610
v -1.613421 -1.511421 -1.158610
v -1.209526 -1.713133 -1.575187
v -1.209526 -1.511421 -1.575187
v 1.186887 -1.713133 1.556450
v 1.186887 -1.511421 1.556450
v 1.590782 -1.713133 1.139873
v 1.590782 -1.511421 1.139873
v -1.158096 -1.692158 1.594498
v -1.158096 -1.490446 1.594498
v -1.575294 -1.692158 1.191244
v -1.575294 -1.490446 1.191244
v 1.552655 -1.692158 -1.209981
v 1.552655 -1.490446 -1.209981
v 1.135457 -1.692158 -1.613235
v 1.135457 -1.490446 -1.613235
v -1.378008 -1.710099 1.378008
v -1.378008 1.710099 1.378008
v -1.378008 -1.710099 -1.378008
v -1.378008 1.710099 -1.378008
v 1.378008 -1.710099 1.378008
v 1.378008 1.710099 1.378008
v 1.378008 -1.710099 -1.378008
v 1.378008 1.710099 -1.378008
v -1.710099 -1.496930 -1.496930
v -1.710099 -1.496930 1.496930
v -1.710099 1.496930 1.496930
v -1.710099 1.496930 -1.496930
v 1.710099 -1.496930 -1.496930
v 1.710099 1.496930 -1.496930
v 1.710099 -1.496930 1.496931
v 1.710099 1.496930 1.496931
v -1.469510 -1.469510 -1.710099
v -1.469510 -1.469510 1.710099
v -1.469510 1.469510 1.710099
v -1.469510 1.469510 -1.710099
v 1.469510 1.469510 -1.710099
v 1.469510 -1.469510 -1.710099
v 1.469510 -1.469510 1.710099
v 1.469510 1.469510 1.710099
v -1.378008 1.570155 1.378008
v -1.378008 1.570155 -1.378008
v 1.378008 1.570155 -1.378008
v 1.378008 1.570155 1.378008
v -1.469510 -1.469510 1.507496
v -1.469510 1.469510 1.507496
v 1.469510 1.469510 1.507496
v 1.469510 -1.469510 1.507496
v -1.469510 1.469510 -1.498216
v -1.469510 -1.469510 -1.498216
v 1.469510 -1.469510 -1.498217
v 1.469510 1.469510 -1.498217
v 1.569312 1.562198 -1.548439
v 1.569312 -1.431663 -1.548439
v 1.569312 -1.431663 1.445422
v 1.569312 1.562198 1.445422
v -1.378008 -1.564898 -1.378008
v -1.378008 -1.564898 1.378008
v 1.378008 -1.564898 -1.378008
v 1.378008 -1.564898 1.378008
v -1.590564 -1.496930 -1.496930
v -1.590564 -1.496930 1.496930
v -1.590564 1.496930 1.496930
v -1.590564 1.496930 -1.496930
v -1.582724 -1.710099 1.582724
v -1.582724 -1.582724 1.710099
v -1.710099 -1.582724 1.582724
v -1.582724 1.582724 1.710099
v -1.582724 1.710099 1.582724
v -1.710099 1.582724 1.582724
v -1.582724 1.710099 -1.582724
v -1.582723 1.582724 -1.710099
v -1.710099 1.582724 -1.582724
v -1.710099 -1.582724 -1.582724
v -1.582723 -1.582724 -1.710099
v -1.582724 -1.710099 -1.582724
v 1.582724 -1.582724 -1.710099
v 1.710099 -1.582724 -1.582723
v 1.582724 -1.710099 -1.582724
v 1.582724 1.710099 -1.582724
v 1.710099 1.582724 -1.582723
v 1.582724 1.582724 -1.710099
v 1.582724 1.710099 1.582724
v 1.582724 1.582724 1.710099
v 1.710099 1.582724 1.582724
v 1.710099 -1.582724 1.582724
v 1.582724 -1.582724 1.710099
v 1.582724 -1.710099 1.582724
v -1.630208 1.478784 -1.158610
v -1.630208 1.680496 -1.158610
v -1.226313 1.478784 -1.575187
v -1.226313 1.680496 -1.575187
v 1.170100 1.478784 1.556450
v 1.170100 1.680496 1.556450
v 1.573995 1.478784 1.139873
v 1.573995 1.680496 1.139873
v -1.174883 1.499759 1.594498
v -1.174883 1.701471 1.594498
v -1.592080 1.499759 1.191244
v -1.592080 1.701471 1.191244
v 1.535868 1.499759 -1.209981
v 1.535868 1.701471 -1.209981
v 1.118671 1.499759 -1.613235
v 1.118671 1.701471 -1.613235
vn -0.7180 -0.0000 -0.6961
vn 0.6961 -0.0000 -0.7180
vn 0.7180 -0.0000 0.6961
vn -0.6961 -0.0000 0.7180
vn -0.0000 -1.0000 -0.0000
vn -0.0000 1.0000 -0.0000
vn -0.6950 -0.0000 0.7190
vn -0.7190 -0.0000 -0.6950
vn 0.6950 -0.0000 -0.7190
vn 0.7190 -0.0000 0.6950
vn -0.0000 -0.0000 1.0000
vn -1.0000 -0.0000 -0.0000
vn 0.3436 -0.0000 -0.9391
vn 1.0000 -0.0000 -0.0000
vn -0.0000 -0.0000 -1.0000
vn 0.4206 0.9072 -0.0000
vn -0.4206 -0.9072 -0.0000
vn -0.3436 -0.0000 0.9391
vn -0.5773 -0.5774 0.5774
vn -0.5774 0.5774 0.5773
vn -0.5773 0.5774 -0.5774
vn -0.5773 -0.5773 -0.5774
vn 0.5773 -0.5774 -0.5774
vn 0.5773 0.5774 -0.5774
vn 0.5773 0.5774 0.5774
vn 0.5773 -0.5773 0.5774
vn -0.7071 -0.7071 -0.0000
vn -0.7071 -0.0000 0.7071
vn -0.7071 0.7071 -0.0000
vn -0.7071 -0.0000 -0.7071
vn -0.0000 -0.7071 -0.7071
vn -0.0000 0.7071 -0.7071
vn 0.7071 -0.0000 -0.7071
vn 0.7071 -0.7071 -0.0000
vn 0.7071 0.7071 -0.0000
vn 0.7071 -0.0000 0.7071
vn -0.0000 -0.7071 0.7071
vn -0.0000 0.7071 0.7071
vt 0.375000 0.000000
vt 0.625000 0.000000
vt 0.625000 0.250000
vt 0.375000 0.250000
vt 0.625000 0.500000
vt 0.375000 0.500000
vt 0.625000 0.750000
vt 0.375000 0.750000
vt 0.625000 1.000000
vt 0.375000 1.000000
vt 0.125000 0.500000
vt 0.125000 0.750000
vt 0.875000 0.500000
vt 0.875000 0.750000
vt 0.609418 0.234418
vt 0.390582 0.234418
vt 0.607414 0.482414
vt 0.392586 0.482414
vt 0.609418 0.734418
vt 0.390582 0.734418
vt 0.607414 0.982414
vt 0.392586 0.982414
vt 0.350726 0.725726
vt 0.149274 0.725726
vt 0.649274 0.524274
vt 0.850726 0.524274
vt 0.850726 0.725726
vt 0.649274 0.725726
vt 0.392586 0.767586
vt 0.607414 0.767586
vt 0.392586 0.267586
vt 0.607414 0.267586
vt 0.390582 0.515582
vt 0.609418 0.515582
vt 0.149274 0.524274
vt 0.350726 0.524274
vt 0.390582 0.015582
vt 0.609418 0.015582
vt 0.134311 0.740690
vt 0.131983 0.747672
vt 0.125000 0.740689
vt 0.615690 0.000000
vt 0.622672 0.006983
vt 0.615690 0.009311
vt 0.623448 0.248448
vt 0.615690 0.257448
vt 0.615690 0.240690
vt 0.125000 0.509310
vt 0.131983 0.502328
vt 0.134311 0.509310
vt 0.376862 0.494414
vt 0.381517 0.508379
vt 0.365689 0.509310
vt 0.629655 0.502793
vt 0.615690 0.507448
vt 0.615690 0.490689
vt 0.629655 0.747207
vt 0.615690 0.759310
vt 0.615690 0.742552
vt 0.381517 0.741621
vt 0.376862 0.755586
vt 0.365689 0.740690
vt 0.384310 0.000000
vt 0.384311 0.009311
vt 0.384311 0.259311
vt 0.384311 0.240690
vt 0.625000 0.990690
vt 0.615690 0.990690
vt 0.384311 0.990690
vt 0.865689 0.740690
vt 0.865690 0.509310
s 0
f 1/1/1 2/2/1 4/3/1 3/4/1
f 3/4/2 4/3/2 8/5/2 7/6/2
f 7/6/3 8/5/3 6/7/3 5/8/3
f 5/8/4 6/7/4 2/9/4 1/10/4
f 3/11/5 7/6/5 5/8/5 1/12/5
f 8/5/6 4/13/6 2/14/6 6/7/6
f 9/1/7 10/2/7 12/3/7 11/4/7
f 11/4/8 12/3/8 16/5/8 15/6/8
f 15/6/9 16/5/9 14/7/9 13/8/9
f 13/8/10 14/7/10 10/9/10 9/10/10
f 11/11/5 15/6/5 13/8/5 9/12/5
f 16/5/6 12/13/6 10/14/6 14/7/6
f 28/15/11 25/16/11 61/16/11 64/15/11
f 37/17/12 38/18/12 51/18/12 52/17/12
f 32/19/13 31/20/13 55/20/13 56/19/13
f 35/21/14 34/22/14 45/22/14 46/21/14
f 21/23/15 17/24/15 58/24/15 60/23/15
f 24/25/11 20/26/11 42/26/11 43/25/11
f 43/25/6 42/26/6 41/27/6 44/28/6
f 20/26/14 18/27/14 41/27/14 42/26/14
f 18/27/15 22/28/15 44/28/15 41/27/15
f 22/28/12 24/25/12 43/25/12 44/28/12
f 48/29/11 47/30/11 46/21/11 45/22/11
f 40/30/5 35/21/5 46/21/5 47/30/5
f 39/29/12 40/30/12 47/30/12 48/29/12
f 34/22/6 39/29/6 48/29/6 45/22/6
f 50/31/15 49/32/15 52/17/15 51/18/15
f 38/18/6 33/31/6 50/31/6 51/18/6
f 36/32/5 37/17/5 52/17/5 49/32/5
f 33/31/14 36/32/14 49/32/14 50/31/14
f 54/33/14 53/34/14 56/19/14 55/20/14
f 31/20/16 29/33/16 54/33/16 55/20/16
f 30/34/17 32/19/17 56/19/17 53/34/17
f 29/33/18 30/34/18 53/34/18 54/33/18
f 57/35/5 59/36/5 60/23/5 58/24/5
f 23/36/12 21/23/12 60/23/12 59/36/12
f 19/35/11 23/36/11 59/36/11 57/35/11
f 17/24/14 19/35/14 57/35/14 58/24/14
f 62/37/12 63/38/12 64/15/12 61/16/12
f 26/37/15 27/38/15 63/38/15 62/37/15
f 27/38/5 28/15/5 64/15/5 63/38/5
f 25/16/6 26/37/6 62/37/6 61/16/6
f 65/39/19 66/40/19 67/41/19
f 68/42/20 69/43/20 70/44/20
f 71/45/21 72/46/21 73/47/21
f 74/48/22 75/49/22 76/50/22
f 77/51/23 78/52/23 79/53/23
f 80/54/24 81/55/24 82/56/24
f 83/57/25 84/58/25 85/59/25
f 86/60/26 87/61/26 88/62/26
f 76/50/27 65/39/27 67/41/27 74/48/27
f 66/63/28 68/42/28 70/44/28 67/64/28
f 69/43/29 71/45/29 73/47/29 70/44/29
f 72/46/30 75/65/30 74/66/30 73/47/30
f 79/53/31 76/50/31 75/49/31 77/51/31
f 71/45/32 80/54/32 82/56/32 72/46/32
f 81/55/33 78/52/33 77/51/33 82/56/33
f 88/62/34 79/53/34 78/52/34 86/60/34
f 80/54/35 83/57/35 85/59/35 81/55/35
f 84/58/36 87/61/36 86/60/36 85/59/36
f 65/39/37 88/62/37 87/61/37 66/40/37
f 83/57/38 69/67/38 68/68/38 84/58/38
f 26/37/12 25/16/12 74/66/12 67/64/12
f 34/22/11 35/21/11 68/68/11 66/69/11
f 19/35/5 17/24/5 65/39/5 76/50/5
f 27/38/12 26/37/12 67/64/12 70/44/12
f 39/29/11 34/22/11 66/69/11 87/61/11
f 17/24/5 21/23/5 88/62/5 65/39/5
f 28/15/12 27/38/12 70/44/12 73/47/12
f 22/28/6 18/27/6 69/70/6 83/57/6
f 18/27/6 20/26/6 71/71/6 69/70/6
f 35/21/11 40/30/11 84/58/11 68/68/11
f 36/32/15 33/31/15 75/65/15 72/46/15
f 25/16/12 28/15/12 73/47/12 74/66/12
f 37/17/15 36/32/15 72/46/15 82/56/15
f 20/26/6 24/25/6 80/54/6 71/71/6
f 23/36/5 19/35/5 76/50/5 79/53/5
f 33/31/15 38/18/15 77/51/15 75/65/15
f 30/34/14 29/33/14 78/52/14 81/55/14
f 21/23/5 23/36/5 79/53/5 88/62/5
f 29/33/14 31/20/14 86/60/14 78/52/14
f 38/18/15 37/17/15 82/56/15 77/51/15
f 32/19/14 30/34/14 81/55/14 85/59/14
f 24/25/6 22/28/6 83/57/6 80/54/6
f 40/30/11 39/29/11 87/61/11 84/58/11
f 31/20/14 32/19/14 85/59/14 86/60/14
f 89/1/1 90/2/1 92/3/1 91/4/1
f 91/4/2 92/3/2 96/5/2 95/6/2
f 95/6/3 96/5/3 94/7/3 93/8/3
f 93/8/4 94/7/4 90/9/4 89/10/4
f 91/11/5 95/6/5 93/8/5 89/12/5
f 96/5/6 92/13/6 90/14/6 94/7/6
f 97/1/7 98/2/7 100/3/7 99/4/7
f 99/4/8 100/3/8 104/5/8 103/6/8
f 103/6/9 104/5/9 102/7/9 101/8/9
f 101/8/10 102/7/10 98/9/10 97/10/10
f 99/11/5 103/6/5 101/8/5 97/12/5
f 104/5/6 100/13/6 98/14/6 102/7/6
