# Blender 5.2.1 LTS
# www.blender.org
mtllib Lock.mtl
o Cube
v 0.082729 0.095967 -0.005442
v -0.140801 -0.195407 0.026782
v 0.069033 0.115007 -0.005442
v -0.140564 -0.195737 0.026782
v 0.069033 -0.115007 -0.005442
v -0.140564 0.195737 0.026782
v -0.140801 0.195407 0.026782
v 0.082729 -0.095967 -0.005442
v -0.114491 -0.209627 -0.029551
v -0.140564 -0.195737 -0.026782
v -0.140801 -0.195407 -0.026782
v -0.150793 -0.159161 -0.029551
v -0.150793 0.159161 -0.029551
v -0.140801 0.195407 -0.026782
v -0.114491 0.209627 -0.029551
v -0.140564 0.195737 -0.026782
v -0.069033 0.115007 -0.005442
v 0.140564 -0.195737 0.026782
v 0.140801 -0.195407 0.026782
v -0.082729 0.095967 -0.005442
v -0.082729 -0.095967 -0.005442
v 0.140801 0.195407 0.026782
v -0.069033 -0.115007 -0.005442
v 0.140564 0.195737 0.026782
v 0.150793 -0.159161 -0.029551
v 0.140801 -0.195407 -0.026782
v 0.114491 -0.209627 -0.029551
v 0.140564 -0.195737 -0.026782
v 0.114491 0.209627 -0.029551
v 0.140564 0.195737 -0.026782
v 0.140801 0.195407 -0.026782
v 0.150793 0.159161 -0.029551
v -0.123813 -0.143625 0.029551
v -0.142800 -0.188157 0.024848
v -0.103315 -0.172121 0.029551
v -0.135349 -0.198515 0.024848
v -0.103315 0.172121 0.029551
v -0.135349 0.198515 0.024848
v -0.123813 0.143625 0.029551
v -0.142800 0.188157 0.024848
v 0.103315 -0.172121 0.029551
v 0.135349 -0.198515 0.024848
v 0.123813 -0.143625 0.029551
v 0.142800 -0.188157 0.024848
v 0.123813 0.143625 0.029551
v 0.142800 0.188157 0.024848
v 0.103315 0.172121 0.029551
v 0.135349 0.198515 0.024848
vn -0.1684 -0.1212 -0.9782
vn -0.4030 0.2899 0.8680
vn -0.4030 -0.2899 0.8680
vn -0.6484 -0.0000 0.7613
vn -0.0000 -0.0000 1.0000
vn -0.1684 0.1212 -0.9782
vn 0.1684 -0.1212 -0.9782
vn 0.1684 0.1212 -0.9782
vn 0.4030 0.2899 0.8680
vn -0.8118 -0.5840 -0.0000
vn 0.6484 -0.0000 0.7613
vn 0.4030 -0.2899 0.8680
vn -0.8118 0.5840 -0.0000
vn -0.0000 0.5224 0.8527
vn -0.0000 -0.0000 -1.0000
vn 0.8118 -0.5840 -0.0000
vn 0.8118 0.5840 -0.0000
vn -0.0916 -0.0659 0.9936
vn -0.0916 0.0659 0.9936
vn 0.0916 -0.0659 0.9936
vn 0.0916 0.0659 0.9936
vn -0.0000 -0.1754 0.9845
vn 0.2404 -0.0000 0.9707
vn -0.0000 0.1754 0.9845
vn -0.2404 -0.0000 0.9707
vn -0.0000 -0.5224 0.8527
vn 0.4832 0.3476 0.8036
vn -0.9640 -0.2658 -0.0000
vn -0.9894 -0.0000 0.1454
vn -0.0000 -0.9798 0.2001
vn -0.4702 -0.8826 -0.0000
vn 0.4832 -0.3476 0.8036
vn -0.4702 0.8826 -0.0000
vn -0.0000 0.9798 0.2001
vn -0.9640 0.2658 -0.0000
vn -0.4832 0.3476 0.8036
vn 0.4702 -0.8826 -0.0000
vn 0.9640 -0.2658 -0.0000
vn 0.9894 -0.0000 0.1454
vn -0.4832 -0.3476 0.8036
vn 0.9640 0.2658 -0.0000
vn 0.4702 0.8826 -0.0000
vt 0.781389 0.603000
vt 0.797585 0.566976
vt 0.785953 0.576892
vt 0.785847 0.577127
vt 0.714754 0.377137
vt 0.723899 0.397477
vt 0.705570 0.431497
vt 0.699460 0.417905
vt 0.723899 0.602523
vt 0.714754 0.622863
vt 0.699460 0.582095
vt 0.705570 0.568503
vt 0.383213 0.043004
vt 0.407775 0.097638
vt 0.407775 0.648378
vt 0.383213 0.703011
vt 0.135607 0.703011
vt 0.111044 0.648378
vt 0.111044 0.097638
vt 0.135607 0.043004
vt 0.797585 0.866249
vt 0.781389 0.830225
vt 0.785847 0.856098
vt 0.785953 0.856333
vt 0.899743 0.566976
vt 0.915939 0.603000
vt 0.911481 0.577127
vt 0.911375 0.576892
vt 0.915939 0.830225
vt 0.899743 0.866249
vt 0.911375 0.856333
vt 0.911481 0.856098
vt 0.613423 0.397477
vt 0.622568 0.377137
vt 0.637863 0.417905
vt 0.631753 0.431497
vt 0.613423 0.602523
vt 0.631753 0.568503
vt 0.622568 0.622863
vt 0.637863 0.582095
vt 0.802571 0.593749
vt 0.793426 0.614090
vt 0.784956 0.582302
vt 0.788280 0.574908
vt 0.793426 0.819135
vt 0.802571 0.839476
vt 0.788280 0.858317
vt 0.784956 0.850923
vt 0.903902 0.614090
vt 0.894757 0.593749
vt 0.909048 0.574908
vt 0.912373 0.582302
vt 0.894757 0.839476
vt 0.903902 0.819135
vt 0.912373 0.850923
vt 0.909048 0.858317
s 0
usemtl Material.001
f 12/1/1 9/2/1 10/3/1 11/4/1
f 41/5/2 43/6/2 8/7/2 5/8/2
f 45/9/3 47/10/3 3/11/3 1/12/3
f 43/6/4 45/9/4 1/12/4 8/7/4
f 5/13/5 8/14/5 1/15/5 3/16/5 17/17/5 20/18/5 21/19/5 23/20/5
f 15/21/6 13/22/6 14/23/6 16/24/6
f 27/25/7 25/26/7 26/27/7 28/28/7
f 32/29/8 29/30/8 30/31/8 31/32/8
f 33/33/9 35/34/9 23/35/9 21/36/9
f 10/3/10 4/3/10 2/4/10 11/4/10
f 39/37/11 33/33/11 21/36/11 20/38/11
f 37/39/12 39/37/12 20/38/12 17/40/12
f 6/24/13 16/24/13 14/23/13 7/23/13
f 35/34/14 41/5/14 5/8/14 23/35/14
f 9/2/15 12/1/15 13/22/15 15/21/15 29/30/15 32/29/15 25/26/15 27/25/15
f 18/28/16 28/28/16 26/27/16 19/27/16
f 30/31/17 24/31/17 22/32/17 31/32/17
f 35/41/18 33/42/18 34/43/18 36/44/18
f 39/45/19 37/46/19 38/47/19 40/48/19
f 43/49/20 41/50/20 42/51/20 44/52/20
f 47/53/21 45/54/21 46/55/21 48/56/21
f 36/44/22 42/51/22 41/50/22 35/41/22
f 44/52/23 46/55/23 45/54/23 43/49/23
f 48/56/24 38/47/24 37/46/24 47/53/24
f 40/48/25 34/43/25 33/42/25 39/45/25
f 47/10/26 37/39/26 17/40/26 3/11/26
f 36/44/27 34/43/27 2/4/27 4/3/27
f 34/43/28 12/1/28 11/4/28 2/4/28
f 34/43/29 40/48/29 13/22/29 12/1/29
f 9/2/30 27/25/30 42/51/30 36/44/30
f 9/2/31 36/44/31 4/3/31 10/3/31
f 40/48/32 38/47/32 6/24/32 7/23/32
f 38/47/33 15/21/33 16/24/33 6/24/33
f 29/30/34 15/21/34 38/47/34 48/56/34
f 13/22/35 40/48/35 7/23/35 14/23/35
f 44/52/36 42/51/36 18/28/36 19/27/36
f 42/51/37 27/25/37 28/28/37 18/28/37
f 25/26/38 44/52/38 19/27/38 26/27/38
f 25/26/39 32/29/39 46/55/39 44/52/39
f 48/56/40 46/55/40 22/32/40 24/31/40
f 46/55/41 32/29/41 31/32/41 22/32/41
f 29/30/42 48/56/42 24/31/42 30/31/42
